<?xml version="1.0" standalone="no"?>
<!DOCTYPE svg PUBLIC "-//W3C//DTD SVG 1.1//EN" "http://www.w3.org/Graphics/SVG/1.1/DTD/svg11.dtd" >
<svg xmlns="http://www.w3.org/2000/svg" xmlns:xlink="http://www.w3.org/1999/xlink" version="1.1">
<metadata></metadata>
<defs>
<font id="didonesquemedium" horiz-adv-x="1585" >
<font-face units-per-em="2048" ascent="1638" descent="-410" />
<missing-glyph horiz-adv-x="573" />
<glyph unicode="&#xfb01;" horiz-adv-x="1376" d="M1036 1225q-70 0 -113.5 44t-43.5 113t43.5 113.5t113.5 44.5q69 0 112.5 -44.5t43.5 -113.5t-43.5 -113t-112.5 -44zM1174 33h169v-33h-624v33h172v958h-406v-958h170v-33h-624v33h172v958h-172v33h172v119q0 76 19.5 145t57 126t100.5 90.5t144 33.5q93 0 158.5 -41 t65.5 -121q0 -57 -36 -98t-98 -41q-55 0 -90 33t-35 86q0 33 13.5 55.5t33 39t23.5 24.5q5 8 0 15t-19.5 11t-35.5 4q-64 0 -103 -38.5t-39 -116.5q0 -40 12.5 -73.5t31 -56.5t36.5 -45t30.5 -49.5t12.5 -58.5v-43h543q65 0 146 25v-1016z" />
<glyph unicode="&#xfb02;" horiz-adv-x="1376" d="M1174 33h169v-33h-624v33h172v1329h-143q-5 -52 -41 -88.5t-93 -36.5q-55 0 -90 33t-35 86q0 33 13.5 55.5t33 39t23.5 24.5q5 8 0 15t-19.5 11t-35.5 4q-64 0 -103 -38.5t-39 -116.5q0 -40 12.5 -73.5t31 -56.5t36.5 -45t30.5 -49.5t12.5 -58.5v-43h170v-33h-170v-958 h170v-33h-624v33h172v958h-172v33h172v119q0 76 19.5 145t57 126t100.5 90.5t144 33.5q87 0 150.5 -36t70.5 -107h105q25 0 48 2t46.5 8.5t39.5 10.5t39 15.5t33 15.5t33.5 20t28 19t30 21t26.5 19v-1493z" />
<glyph horiz-adv-x="0" />
<glyph horiz-adv-x="682" />
<glyph unicode=" "  horiz-adv-x="573" />
<glyph unicode="&#x09;" horiz-adv-x="573" />
<glyph unicode="&#xa0;" horiz-adv-x="573" />
<glyph unicode="!" horiz-adv-x="624" d="M313 1546q-163 0 -163 -248q0 -120 14 -208t34 -149t41 -127t38.5 -180.5t21.5 -271.5h27q2 157 18.5 271.5t38 180.5t42.5 126.5t35.5 149t14.5 208.5q0 124 -42 186t-120 62zM313 258q57 0 97.5 -39t40.5 -98t-40.5 -98t-97.5 -39t-97 39t-40 98t40 98t97 39z" />
<glyph unicode="&#x22;" horiz-adv-x="634" d="M170 1534q-40 0 -64 -28.5t-24 -80.5q0 -94 17.5 -172.5t37 -149.5t21.5 -142h24q2 71 21 142.5t36 149.5t17 172q0 52 -23.5 80.5t-62.5 28.5zM467 1534q-40 0 -64 -28.5t-24 -80.5q0 -94 17.5 -172.5t37 -149.5t21.5 -142h24q2 71 21 142.5t36 149.5t17 172 q0 52 -23.5 80.5t-62.5 28.5z" />
<glyph unicode="#" horiz-adv-x="1105" d="M997 983h-178l-86 -534h176l-6 -41h-178l-66 -408h-45l66 408h-352l-66 -408h-45l66 408h-181l7 41h182l86 534h-180l6 41h180l68 410h45l-68 -410h352l68 410h45l-68 -410h179zM688 449l86 534h-352l-86 -534h352z" />
<glyph unicode="$" horiz-adv-x="1224" d="M1139 428q0 -178 -118.5 -300.5t-340.5 -152.5v-94h-33v90q-66 -4 -102 -4h-19v-86h-32v88q-103 4 -183.5 28.5t-128 62t-72 82.5t-24.5 94q0 74 49 117.5t115 43.5q68 0 114 -44.5t46 -114.5q0 -27 -7 -49.5t-21.5 -40t-24 -26.5t-27.5 -22t-19 -14q-50 -32 29 -59 q58 -19 154 -25v621q-79 32 -128.5 56t-103.5 60.5t-84 76t-49.5 96.5t-19.5 128q0 170 100 277.5t285 138.5v96h32v-92q52 6 111 6h10v86h33v-86q100 -4 175 -28.5t117 -62.5t61.5 -82t19.5 -93q0 -70 -43.5 -111.5t-106.5 -41.5q-61 0 -106 41.5t-45 109.5q0 34 14.5 63 t28.5 43t36 31q56 40 -10 70q-51 22 -141 27v-533q40 -15 59.5 -23t60.5 -25t63.5 -29.5t59.5 -33t58.5 -40t50 -46t45 -55t32.5 -62.5t23 -73.5t7 -83.5zM631 1434q-55 0 -105 -9v-462q63 -29 121 -52v523h-16zM324 1204q0 -78 38.5 -128.5t131.5 -96.5v438 q-170 -47 -170 -213zM559 0q34 0 88 4v557q-20 9 -60.5 25t-60.5 24v-610h33zM680 10q229 41 229 258q0 103 -54 163.5t-175 115.5v-537z" />
<glyph unicode="%" horiz-adv-x="1363" d="M987 1466h45l-674 -1499h-45l627 1395q-75 -47 -182.5 -51.5t-188.5 28.5q66 -96 66 -262q0 -87 -18 -155t-47 -109t-69 -67t-79 -36t-82 -10q-42 0 -81 10t-78.5 36t-68.5 67t-47 109t-18 155t18 154.5t47 108t68.5 66t78 35t81.5 9.5q100 0 170 -49q33 -29 99 -47 t139 -19.5t141 31.5t98 98v2zM340 725q18 0 31.5 4.5t24 15.5t17.5 24.5t12 37.5t8 47.5t4.5 62t2 73t0.5 87.5q0 72 -1 114.5t-4 87t-9.5 68t-17.5 43.5t-27.5 27.5t-40.5 7.5q-23 0 -39 -7.5t-27 -27.5t-17.5 -43.5t-9.5 -68t-4 -87t-1 -114.5t1 -114.5t4 -88t9.5 -69 t17.5 -44.5t27 -28.5t39 -7.5zM1022 733q55 0 103 -16.5t93.5 -55.5t72 -116t26.5 -185t-26.5 -185.5t-72 -117t-93.5 -56.5t-103 -17q-42 0 -81 9.5t-78.5 36t-68.5 67t-47 108.5t-18 155t18 154.5t47 108t68.5 66t78 35t81.5 9.5zM1022 8q18 0 31.5 4.5t24 15.5t17.5 24.5 t12 37.5t8 47.5t4.5 62t2 73t0.5 87.5q0 72 -1 114.5t-4 87.5t-9.5 68t-17.5 43.5t-27.5 28t-40.5 7.5q-17 0 -30.5 -4t-23.5 -15.5t-17.5 -24.5t-12 -36.5t-7.5 -46.5t-4.5 -61.5t-2 -73t-0.5 -87.5q0 -72 1 -114.5t4 -88t9.5 -69t17.5 -44.5t27 -28.5t39 -7.5z" />
<glyph unicode="&#x26;" horiz-adv-x="1605" d="M1479 449h24q0 -72 -9.5 -136.5t-32.5 -126.5t-59 -106.5t-93 -72t-129 -27.5q-174 0 -338 178q-94 -191 -330 -191q-186 0 -308 105.5t-122 277.5q0 49 11.5 93.5t30 79.5t48 68t58 57t69.5 49.5t72.5 42.5t74.5 38q-86 187 -86 330q0 161 100 259.5t269 98.5 q133 0 219.5 -59t95.5 -176q7 -108 -71 -192.5t-258 -174.5q45 -88 90 -164q39 -71 119 -198q25 209 119.5 334t238.5 125q96 0 153.5 -53.5t57.5 -135.5q0 -70 -42.5 -119t-117.5 -49q-71 0 -118.5 41.5t-47.5 122.5q0 61 37.5 98t91.5 45q19 3 11 11q-10 10 -41 10 q-88 0 -157.5 -67.5t-108 -173t-46.5 -232.5q92 -133 173.5 -198.5t162.5 -65.5q95 0 142 67.5t47 186.5zM672 1434q-49 0 -81 -37t-32 -111q0 -69 32.5 -160t108.5 -235q171 86 146 311q-21 232 -174 232zM612 31q68 0 125.5 43.5t79.5 107.5q-42 48 -89 115.5t-69 103.5 t-67 113q-87 149 -131 236q-116 -77 -86 -344q12 -107 40 -188t78.5 -134t118.5 -53z" />
<glyph unicode="'" horiz-adv-x="337" d="M170 1534q-40 0 -64 -28.5t-24 -80.5q0 -94 17.5 -172.5t37 -149.5t21.5 -142h24q2 71 21 142.5t36 149.5t17 172q0 52 -23.5 80.5t-62.5 28.5z" />
<glyph unicode="(" horiz-adv-x="729" d="M557 1788q-206 -219 -306.5 -501t-100.5 -572q0 -188 40.5 -370t133.5 -367.5t233 -333.5l23 26q-83 205 -130 490.5t-47 548.5q0 264 47.5 556t129.5 496z" />
<glyph unicode=")" horiz-adv-x="729" d="M172 -356q140 148 233.5 334t134 368.5t40.5 370.5q0 289 -100.5 570t-307.5 501l-22 -27q82 -205 129 -490t47 -548q0 -265 -47 -557t-129 -496z" />
<glyph unicode="*" horiz-adv-x="874" d="M731 1192q34 -8 49 -35t6 -67q-9 -38 -34 -55.5t-60 -10.5q-24 5 -43.5 17t-36 27.5t-35.5 31.5t-53 33t-78 28q27 -47 57.5 -80t52.5 -46.5t44 -34t35 -46.5q15 -32 3.5 -60.5t-46.5 -47.5q-36 -18 -66 -8.5t-45 41.5q-13 27 -15.5 57.5t1 56t-3 70t-27.5 94.5 q-26 -65 -29.5 -121.5t1 -81.5t-16.5 -75q-15 -31 -45 -40.5t-65 7.5q-36 18 -48 46.5t5 61.5q11 21 27.5 37t35 29t38 28.5t43 44t44.5 68.5q-53 -15 -92 -37.5t-57 -40.5t-42.5 -35t-54.5 -24q-36 -8 -62 10t-32 56q-13 87 55 102q34 8 75.5 -2.5t80.5 -20t125 4.5 q-57 41 -107 55.5t-87 21t-66 29.5q-28 22 -30 53t24 64q52 64 114 18q29 -21 43 -56.5t39 -82t78 -90.5q-4 69 -24.5 117.5t-38 82t-17.5 68.5t23 56.5t63 21.5t63 -21.5t23 -56.5t-18.5 -68.5t-38.5 -82t-23 -117.5q41 37 66.5 73.5t33 60t22 50t38.5 45.5q28 23 59 18 t56 -36q25 -32 23.5 -63.5t-29.5 -53.5t-66.5 -28t-88 -20.5t-105.5 -57.5q86 -12 124.5 -3t79.5 18.5t76 2.5z" />
<glyph unicode="+" horiz-adv-x="610" d="M563 737v-41h-235v-252h-45v252h-236v41h236v252h45v-252h235z" />
<glyph unicode="," horiz-adv-x="430" d="M354 61q0 -206 -229 -258l-4 23q182 53 182 213h-10q-25 -55 -90 -55q-55 0 -91 39.5t-36 99.5t40 96.5t97 36.5q68 0 104.5 -56t36.5 -139z" />
<glyph unicode="-" horiz-adv-x="593" d="M82 553h430v-41h-430v41z" />
<glyph unicode="." horiz-adv-x="425" d="M213 258q57 0 97 -39t40 -98t-40 -98t-97 -39t-97 39t-40 98t40 98t97 39z" />
<glyph unicode="/" horiz-adv-x="671" d="M592 1546l41 -14l-555 -1612l-41 14z" />
<glyph unicode="0" horiz-adv-x="1249" d="M625 -33q-94 0 -174.5 24.5t-151 80.5t-119.5 141.5t-77.5 213.5t-28.5 290t28.5 290t77.5 213t119.5 141t151 80.5t174.5 24.5t174.5 -24.5t150.5 -80.5t119 -141t77 -213t28 -290t-28 -290t-77 -213.5t-119 -141.5t-150.5 -80.5t-174.5 -24.5zM625 -8q49 0 85 18 t61.5 59.5t41 96.5t24.5 142t12 181t3 228t-3 228t-12 181t-24.5 142t-41 96.5t-61.5 59.5t-85 18t-85 -18t-61.5 -59.5t-41.5 -96.5t-25 -142t-12 -181t-3 -228t3 -228t12 -181t25 -142t41.5 -96.5t61.5 -59.5t85 -18z" />
<glyph unicode="1" horiz-adv-x="829" d="M555 33h176v-33h-635v33h176v1081q0 68 -23.5 93.5t-84.5 25.5h-64v20q69 13 130.5 35.5t121 58t92.5 58t91 65.5h20v-1437z" />
<glyph unicode="2" horiz-adv-x="1159" d="M1065 420h25q0 -85 -9 -150.5t-33 -124t-63.5 -96.5t-101.5 -60t-146 -22q-79 0 -161 19.5t-136.5 43t-111 43t-90.5 19.5q-75 0 -117 -92h-41q-9 55 -10 104.5t5.5 90.5t17.5 76.5t28.5 66t36 55.5t43.5 48t47.5 40.5t50.5 36.5q17 12 58 38.5t60.5 39.5t56.5 40.5 t56 45.5t48.5 49t45.5 58t36 65.5t29.5 77.5t16.5 88.5t7 103.5q0 164 -59.5 236t-168.5 72t-195.5 -56t-86.5 -143q0 -18 6.5 -19t21.5 10q14 8 23.5 13t29.5 10.5t40 5.5q63 -4 99 -47.5t36 -111.5q0 -84 -52.5 -125t-123.5 -41q-79 0 -124.5 55t-45.5 152 q0 157 118.5 244t321.5 87q99 0 182.5 -22t151.5 -69t106.5 -128t38.5 -190q0 -68 -16.5 -126t-41.5 -100.5t-67 -81t-81 -63.5t-96 -51.5t-99.5 -42.5t-104.5 -39.5t-98 -38.5q-63 -26 -110 -52.5t-90.5 -64t-69 -82t-37.5 -105t-4 -132.5h8q17 96 102 155t203 56 q87 -4 230 -38t217 -34q93 0 140.5 42t47.5 161z" />
<glyph unicode="3" horiz-adv-x="1159" d="M463 2q149 0 229 92.5t80 282.5q0 192 -85 294.5t-255 102.5v33q167 0 234 73.5t67 235.5q0 167 -60.5 241.5t-174.5 74.5q-103 0 -180.5 -48.5t-77.5 -123.5q0 -15 5 -15.5t16 9.5q8 6 13 9.5t15.5 9.5t20.5 9.5t24 6t28 1.5q60 -3 99 -46t39 -111q0 -76 -48.5 -121 t-125.5 -45q-84 0 -131.5 58.5t-47.5 145.5q0 99 58 167t151.5 98t216.5 30q201 0 317 -81t116 -238q0 -76 -27.5 -138t-74 -102.5t-101 -65t-115.5 -34.5v-8q190 -21 296 -134.5t106 -269.5q0 -134 -76 -232.5t-205 -147t-295 -48.5q-218 0 -331 96.5t-113 243.5 q0 103 51 166.5t137 63.5q83 0 137 -49.5t54 -135.5q0 -67 -40 -114.5t-110 -53.5q-19 -1 -36.5 1t-30 7t-22 10t-18 11.5t-12.5 9.5q-8 8 -11 7.5t-3 -11.5q0 -91 87 -154t210 -63z" />
<glyph unicode="4" horiz-adv-x="1189" d="M1090 397h-201v-364h172v-33h-627v33h174v364h-571v21l557 1016h295v-996h69q67 0 93.5 38.5t44.5 144.5h24zM96 438h512v938z" />
<glyph unicode="5" horiz-adv-x="1140" d="M563 905q105 0 194 -25.5t159.5 -77t110.5 -136t40 -193.5q0 -103 -36 -194t-105 -161t-177.5 -110.5t-244.5 -40.5q-215 0 -324.5 93.5t-109.5 242.5q0 99 48.5 165.5t143.5 66.5q84 0 135.5 -53t51.5 -132q0 -66 -37.5 -113t-110.5 -53q-18 1 -27 0t-23.5 3.5t-20 6 t-17 8t-14 8t-11.5 7.5t-13 8t-6.5 -1t-2.5 -13q0 -80 80 -145.5t213 -65.5q151 0 221 114t70 345q0 98 -12.5 171t-41 128.5t-78 83.5t-120.5 28q-87 0 -185.5 -47t-142.5 -116l-33 14l109 713h680l6 49h24l-18 -189q-7 -61 -67 -93t-158 -32h-473l-58 -385h11 q147 121 370 121z" />
<glyph unicode="6" horiz-adv-x="1169" d="M674 911q199 0 309.5 -110t110.5 -324q0 -109 -30.5 -197.5t-80 -145.5t-116 -95.5t-135.5 -55t-142 -16.5q-81 0 -153.5 21t-139.5 72t-115 127t-77 194t-29 266q0 140 21.5 262t66.5 225t111.5 176.5t161.5 114.5t210 41q85 0 149 -22t98 -58t50.5 -75t16.5 -80 q0 -77 -49.5 -119.5t-116.5 -42.5q-69 0 -114.5 44.5t-45.5 113.5q0 93 84 127q25 11 53 13t40.5 2.5t12.5 10.5q0 20 -41.5 37t-99.5 17q-61 0 -108.5 -21.5t-80 -64t-54.5 -97t-34.5 -130.5t-17.5 -153.5t-6 -176.5h10q30 31 49 47.5t52.5 36t77 28t102.5 8.5zM604 0 q74 0 118 36t67.5 132t23.5 264q0 108 -10.5 186.5t-28 126.5t-45.5 76.5t-58.5 38.5t-72.5 10q-223 0 -223 -417q0 -210 58 -331.5t171 -121.5z" />
<glyph unicode="7" horiz-adv-x="1015" d="M971 1434q0 -91 -13.5 -161.5t-44 -129t-58 -98.5t-77 -103.5t-80.5 -110.5q-74 -110 -107.5 -233t-33 -267.5t20.5 -330.5h-318q-11 136 1.5 254.5t41.5 209t80.5 175t105.5 147.5t129 132q152 139 199 192q94 107 111 215h-10q-40 -83 -113 -127.5t-172 -44.5 q-48 0 -194.5 27.5t-200.5 27.5q-83 0 -121 -34.5t-47 -131.5h-25l41 392h25l-9 -72q71 104 263 104q91 0 188 -25t175.5 -50t123.5 -25q77 0 94 68h25z" />
<glyph unicode="8" horiz-adv-x="1140" d="M745 868q92 -45 157.5 -97.5t101.5 -109.5t51.5 -114t15.5 -121q0 -113 -43.5 -203t-117.5 -144.5t-166.5 -83t-196.5 -28.5q-91 0 -174.5 22t-152 64.5t-109.5 113.5t-41 161q0 52 15 98.5t39.5 83t66.5 75t84.5 68.5t105.5 70q-234 116 -234 352q0 96 37.5 172 t100.5 123t141.5 71.5t165.5 24.5q168 0 277.5 -82.5t109.5 -212.5q0 -24 -5 -47.5t-11.5 -42t-20 -39t-23 -34t-29 -31.5t-29 -27t-32 -25.5t-29.5 -21t-30 -19.5t-25 -16zM575 1436q-99 0 -146.5 -57t-47.5 -158q0 -107 60 -167.5t253 -156.5q38 35 62 102.5t24 149.5 q0 154 -47.5 220.5t-157.5 66.5zM557 0q122 0 196 67t74 209q0 134 -86 221.5t-311 200.5q-123 -84 -123 -342q0 -86 14 -150.5t36 -103t55.5 -62t67.5 -32t77 -8.5z" />
<glyph unicode="9" horiz-adv-x="1169" d="M530 522q-84 0 -164.5 32.5t-145.5 91t-104.5 147.5t-39.5 194q0 212 138 345.5t355 133.5q84 0 158.5 -21.5t142.5 -71.5t117 -126.5t78 -194.5t29 -266q0 -382 -157.5 -600.5t-444.5 -218.5q-75 0 -134.5 16t-97 40.5t-62 58t-34.5 66t-10 65.5q0 77 50 120.5t118 43.5 q69 0 115 -43.5t46 -114.5q0 -94 -80 -129q-24 -10 -53 -12t-43 -3.5t-14 -13.5q0 -26 55 -43.5t117 -17.5q91 0 155 48t99.5 140.5t51 209t15.5 270.5h-10q-1 -1 -11 -17.5t-15 -23t-18.5 -23t-25 -25t-31 -21.5t-39.5 -19.5t-47.5 -11.5t-58.5 -5zM557 1434 q-40 0 -70.5 -17t-57.5 -60t-41.5 -127.5t-14.5 -207.5q0 -249 44 -354t142 -105q46 0 86 21.5t74.5 67.5t55 130.5t20.5 198.5q0 209 -61 331t-177 122z" />
<glyph unicode=":" horiz-adv-x="499" d="M250 887q57 0 97 -39t40 -98t-40.5 -98.5t-96.5 -39.5t-96.5 39.5t-40.5 98.5t40 98t97 39zM250 258q57 0 97 -39t40 -98t-40 -98t-97 -39t-97 39t-40 98t40 98t97 39z" />
<glyph unicode=";" horiz-adv-x="503" d="M250 887q57 0 97 -39t40 -98t-40.5 -98.5t-96.5 -39.5t-96.5 39.5t-40.5 98.5t40 98t97 39zM391 61q0 -206 -229 -258l-4 23q182 53 182 213h-10q-25 -55 -90 -55q-55 0 -91 39.5t-36 99.5t40 96.5t97 36.5q68 0 104.5 -56t36.5 -139z" />
<glyph unicode="&#x3c;" horiz-adv-x="509" d="M463 948v-41l-363 -190l363 -193v-41l-416 219v27z" />
<glyph unicode="=" horiz-adv-x="610" d="M47 836h516v-41h-516v41zM47 639h516v-41h-516v41z" />
<glyph unicode="&#x3e;" horiz-adv-x="509" d="M47 948l416 -219v-27l-416 -219v41l363 193l-363 190v41z" />
<glyph unicode="?" horiz-adv-x="1026" d="M467 371h-25q-67 152 25 303q41 69 64.5 114t54 117t45 150t14.5 164q0 288 -223 288q-109 0 -189.5 -56t-80.5 -140q0 -9 3 -9l20 18q44 42 104 42q72 0 121 -49.5t49 -126.5q0 -81 -54.5 -129.5t-130.5 -48.5q-83 0 -132.5 55t-49.5 147q0 49 12 94t42.5 89t76.5 76.5 t120.5 52.5t168.5 20q213 0 327.5 -101t114.5 -267q0 -91 -31.5 -166.5t-84 -129.5t-106 -96.5t-112.5 -90.5t-90 -89q-73 -100 -53 -231zM469 258q57 0 97 -39t40 -98t-40 -98t-97 -39t-97 39t-40 98t40 98t97 39z" />
<glyph unicode="@" horiz-adv-x="2097" d="M1053 1466q183 0 343 -54.5t273.5 -146t195 -210t121 -247.5t39.5 -257q0 -255 -153.5 -419.5t-388.5 -164.5q-127 0 -202.5 57.5t-78.5 180.5h-8q-97 -238 -330 -238q-104 0 -191.5 37t-150 111t-83 184.5t9.5 257.5q24 107 72.5 194t109.5 143t135.5 93.5t147.5 53.5 t149 16q198 0 258 -131h6l21 98h100q96 0 186 25l-186 -875q-38 -172 92 -172q49 0 106 19t118 62t109.5 104t80 155t31.5 205q0 128 -38 254t-116 240.5t-187 202t-262.5 139t-330.5 51.5q-135 0 -270.5 -41.5t-255 -123t-212 -192.5t-146.5 -259.5t-54 -313.5 q0 -140 35.5 -271t109.5 -245.5t179 -200t253.5 -135t323.5 -49.5q317 0 491 157l25 -20q-79 -73 -208.5 -121.5t-313.5 -48.5q-180 0 -333.5 50.5t-263 138.5t-187 205.5t-115 252t-37.5 277.5q0 172 54.5 327t149.5 271t219 201t267.5 129t290.5 44zM889 0q108 0 191 87 t116 226l104 492q2 21 0.5 48t-17 57.5t-37.5 55.5t-62 41.5t-90 16.5q-124 0 -205.5 -115t-132.5 -381q-53 -268 -21 -398t154 -130z" />
<glyph unicode="A" horiz-adv-x="1409" d="M1260 33h133v-33h-629v33h160l-148 432h-446l-150 -432h187v-33h-351v33h119l496 1427h129zM344 506h418l-207 606z" />
<glyph unicode="B" horiz-adv-x="1355" d="M893 784q23 0 51.5 -4.5t67 -16t75 -29.5t73 -48t63.5 -68.5t44 -94t17 -120.5q0 -87 -31 -159.5t-95 -130t-173 -89.5t-254 -32q-44 0 -141.5 4t-155.5 4h-389v33h180v1368h-180v33h389q55 0 156 4t143 4q238 0 355.5 -87.5t117.5 -244.5q0 -70 -23.5 -127.5t-59 -92.5 t-79 -59t-81.5 -33.5t-70 -9.5v-4zM670 1409q-40 0 -146 -4v-617h162q128 0 185 66.5t57 239.5t-62 244t-196 71zM668 25q176 0 237.5 74t61.5 280q0 113 -12 180.5t-46.5 112t-91 60.5t-151.5 16h-142v-719q106 -4 144 -4z" />
<glyph unicode="C" horiz-adv-x="1372" d="M768 -33q-142 0 -269 53t-221.5 148t-150 235.5t-55.5 305.5q0 167 55 309.5t150 240t224 152.5t275 55q72 0 130 -13.5t88.5 -29.5t64 -29.5t61.5 -13.5q59 0 74 54h33v-416h-21q-23 182 -132.5 299t-285.5 117q-130 0 -214.5 -70t-129.5 -226.5t-45 -404.5 q0 -380 103.5 -554.5t308.5 -174.5q92 0 171.5 34.5t139 100.5t93.5 168.5t34 231.5h29q0 -267 -135 -419.5t-375 -152.5z" />
<glyph unicode="D" horiz-adv-x="1552" d="M745 1442q167 0 301 -44.5t231.5 -132t150.5 -226t53 -318.5q0 -160 -43 -290.5t-130.5 -230t-231.5 -154t-335 -54.5q-43 0 -148.5 4t-162.5 4h-385v33h180v1368h-180v33h385q57 0 164.5 4t150.5 4zM686 25q99 0 166.5 14t128.5 55.5t96.5 115.5t55.5 194.5t20 293.5 q0 133 -11 237t-30.5 178.5t-51.5 127.5t-68 85.5t-87 51t-100.5 25t-116.5 6.5q-54 0 -164 -4v-1376q106 -4 162 -4z" />
<glyph unicode="E" horiz-adv-x="1337" d="M1237 485h25v-485h-1217v33h180v1368h-180v33h1167v-351h-24q-5 46 -19 87t-45 84.5t-76 75t-117.5 51.5t-164.5 20h-242v-643h185q45 0 79.5 19.5t55.5 47.5t36.5 74.5t23 84t14.5 91.5h24v-678h-24q-7 55 -14 92t-22.5 84.5t-36.5 75.5t-55.5 48t-80.5 20h-185v-684 h283q91 0 163.5 24.5t120 66t80 100.5t47.5 123t19 138z" />
<glyph unicode="F" horiz-adv-x="1259" d="M1178 1434v-330h-25q-6 40 -19.5 77t-44 78.5t-74 71.5t-115.5 50t-163 20h-213v-686h191q50 0 87 26.5t59 75.5t33.5 97t20.5 114h25v-668h-25q-9 66 -20.5 114t-33 97.5t-58.5 76t-88 26.5h-191v-641h248v-33h-727v33h180v1368h-180v33h1133z" />
<glyph unicode="G" horiz-adv-x="1505" d="M1475 608v-33h-113v-524h-31q-34 58 -82 58q-30 0 -79 -22t-98 -49t-130.5 -49t-167.5 -22q-139 0 -266 53.5t-224 148t-154.5 235t-57.5 305.5q0 166 57 308t155.5 240t233.5 153.5t287 55.5q75 0 137 -13.5t94 -29.5t67 -29.5t62 -13.5q57 0 72 54h33v-416h-21 q-27 190 -137.5 303t-294.5 113q-100 0 -175.5 -37t-130.5 -118.5t-83.5 -218t-28.5 -327.5q0 -376 106 -554.5t300 -178.5q107 0 177 53t110 182t41 340h-230v33h572z" />
<glyph unicode="H" horiz-adv-x="1656" d="M1612 1401h-182v-1368h182v-33h-641v33h159v680h-606v-680h162v-33h-641v33h180v1368h-180v33h641v-33h-162v-647h606v647h-159v33h641v-33z" />
<glyph unicode="I" horiz-adv-x="751" d="M45 1434h662v-33h-185v-1368h185v-33h-662v33h182v1368h-182v33z" />
<glyph unicode="J" horiz-adv-x="1015" d="M309 1401v33h662v-33h-180v-819q0 -615 -426 -615q-137 0 -228.5 60t-91.5 172q0 77 42.5 118t105.5 41q60 0 100.5 -34.5t40.5 -90.5q0 -29 -13.5 -52.5t-30.5 -36.5t-37 -32.5t-30 -39.5q-5 -30 24.5 -51t94.5 -21q107 0 143 88q5 14 7 28.5t2 27t-1 46.5t-1 66v1145 h-183z" />
<glyph unicode="K" horiz-adv-x="1599" d="M1438 33h123v-33h-596v33h135l-490 684l-86 -86v-598h183v-33h-662v33h180v1368h-180v33h662v-33h-183v-713l697 713h-138v33h390v-33h-187l-481 -486z" />
<glyph unicode="L" horiz-adv-x="1325" d="M1223 500h24v-500h-1202v33h180v1368h-180v33h670v-33h-191v-1368h291q90 0 161.5 28.5t116 74t74 108.5t42 125.5t14.5 130.5z" />
<glyph unicode="M" horiz-adv-x="1853" d="M1808 1401h-180v-1368h180v-33h-661v33h182v1306h-8l-500 -1339h-43l-495 1339h-9v-1306h183v-33h-412v33h180v1368h-180v33h514l377 -1002l377 1002h495v-33z" />
<glyph unicode="N" horiz-adv-x="1509" d="M1063 1434h412v-33h-183v-1413h-94l-915 1124h-9v-1079h183v-33h-412v33h180v1368h-180v33h420l770 -985h8v952h-180v33z" />
<glyph unicode="O" d="M1513 717q0 -139 -39.5 -260t-108 -209.5t-159.5 -152.5t-196 -96t-215 -32q-111 0 -216 32t-197 96t-161 152.5t-109 209.5t-40 260t40 260t109 209.5t161 152t197 95.5t216 32q110 0 215 -32t196 -95.5t159.5 -152t108 -209.5t39.5 -260zM795 -2q196 0 293.5 172.5 t97.5 546.5t-97.5 546.5t-293.5 172.5q-198 0 -297 -173.5t-99 -547.5q0 -372 99 -544.5t297 -172.5z" />
<glyph unicode="P" horiz-adv-x="1290" d="M778 1442q103 0 185.5 -21.5t147 -66.5t99.5 -122.5t35 -182.5q0 -214 -140 -340t-372 -129q-54 -2 -209 2v-549h183v-33h-662v33h180v1368h-180v33h389q55 0 183.5 4t160.5 4zM692 612q45 1 80 11t69 37t56 71.5t35.5 118.5t13.5 174q0 101 -11.5 173.5t-30 113 t-48.5 63t-58 29t-69 6.5q-107 0 -205 -4v-791q126 -4 168 -2z" />
<glyph unicode="Q" d="M1323 -172q50 0 74 40t24 99h25q0 -125 -86.5 -208t-210.5 -83q-155 0 -324 138q-43 34 -70 53t-69 37t-80 18q-125 0 -200 -170l-17 17q75 176 244 217q-115 26 -215.5 86.5t-178.5 151.5t-122.5 218t-44.5 275q0 139 40 260t109 209.5t161 152t197 95.5t216 32 q110 0 215 -32t196 -95.5t159.5 -152t108 -209.5t39.5 -260q0 -154 -48.5 -285.5t-131.5 -223.5t-190 -151.5t-228 -79.5q52 -11 115 -36q27 -12 97.5 -45.5t116.5 -50.5t79 -17zM399 715q0 -372 99 -544.5t297 -172.5q196 0 293.5 172.5t97.5 546.5t-97.5 546.5 t-293.5 172.5q-198 0 -297 -173.5t-99 -547.5z" />
<glyph unicode="R" horiz-adv-x="1437" d="M1415 92l23 -10q-18 -54 -61.5 -84.5t-137.5 -30.5q-71 0 -124.5 19t-87 48.5t-58 79.5t-37.5 97.5t-25 116.5q-8 48 -13 76t-13.5 67t-16.5 60.5t-19.5 49t-25.5 42t-32.5 28.5t-41.5 19.5t-51 5.5h-170v-643h183v-33h-662v33h180v1368h-180v33h389q55 0 175.5 4 t150.5 4q81 0 149 -12t126.5 -40t99 -69.5t63.5 -103.5t23 -140q0 -159 -91 -248.5t-243 -111.5v-4q65 -4 110.5 -16.5t86 -41.5t67.5 -81.5t43 -131.5q7 -34 16.5 -100t18 -116.5t21.5 -103t34 -81.5t49 -29q29 0 51.5 22.5t30.5 57.5zM735 717q45 0 77 13t58.5 47 t40 100.5t13.5 166.5q0 143 -22 222t-66.5 111t-124.5 32q-89 0 -187 -4v-688h211z" />
<glyph unicode="S" horiz-adv-x="1226" d="M588 -33q-76 0 -144.5 13t-108 28t-77 28t-57.5 13q-25 0 -40.5 -13.5t-17.5 -35.5h-32l24 481h25q-1 -255 108.5 -368t313.5 -113q177 0 255 73.5t78 196.5q0 30 -5.5 56.5t-13 48t-24.5 42t-32 35.5t-43.5 33t-50.5 30t-63 30t-70 30t-81 33q-73 30 -127.5 57.5 t-112 68t-94 85.5t-60 107t-23.5 135q0 187 134 296t357 109q68 0 124.5 -11t86.5 -23.5t61.5 -23.5t55.5 -11q50 0 55 37h33v-361h-25q-24 162 -120.5 261.5t-270.5 99.5q-130 0 -203 -52t-73 -155t82 -177.5t268 -142.5q42 -16 65.5 -24.5t67.5 -27.5t71 -34t66 -40 t63 -48.5t52 -57t43.5 -69.5t26 -81t10.5 -95q0 -210 -153 -336.5t-404 -126.5z" />
<glyph unicode="T" horiz-adv-x="1452" d="M1376 1434v-330h-24q-11 52 -26 92t-45 80.5t-72 66t-108.5 42t-152.5 16.5h-74v-1368h187v-33h-670v33h184v1368h-71q-86 0 -152.5 -16.5t-108.5 -42t-72 -66t-45 -80.5t-26 -92h-24v330h1300z" />
<glyph unicode="U" horiz-adv-x="1572" d="M1116 1434h412v-33h-182v-934q0 -78 -14.5 -147t-51 -135t-93.5 -113t-147 -76t-206 -29q-96 0 -183 18.5t-165.5 60t-136 102.5t-91 151.5t-33.5 200.5v901h-180v33h662v-33h-183v-965q0 -225 95 -326.5t260 -101.5q187 0 302 115t115 313v965h-180v33z" />
<glyph unicode="V" horiz-adv-x="1452" d="M1071 1434h346v-33h-119l-505 -1428h-95l-512 1428h-151v33h655v-33h-182l366 -1067l379 1067h-182v33z" />
<glyph unicode="W" horiz-adv-x="2125" d="M1745 1434h346v-33h-119l-471 -1428h-94l-326 957l-315 -957h-94l-486 1428h-151v33h622v-33h-149l336 -1057l215 653l-137 404h-152v33h655v-33h-182l336 -1059l348 1059h-182v33z" />
<glyph unicode="X" horiz-adv-x="1495" d="M1292 33h158v-33h-670v33h193l-340 588l-352 -588h180v-33h-416v33h184l379 631l-426 737h-137v33h651v-33h-194l309 -535l324 535h-183v33h418v-33h-184l-350 -578z" />
<glyph unicode="Y" horiz-adv-x="1413" d="M1034 1434h344v-33h-118l-361 -690v-678h180v-33h-661v33h182v653l-416 715h-149v33h614v-33h-151l374 -653l342 653h-180v33z" />
<glyph unicode="Z" horiz-adv-x="1275" d="M1145 485h24l-49 -485h-1014v33l715 1368h-381q-62 0 -110.5 -28t-79.5 -78t-50 -106t-30 -124h-25l31 369h967v-33l-715 -1368h354q74 0 138 37.5t108.5 101.5t74 143.5t42.5 169.5z" />
<glyph unicode="[" horiz-adv-x="573" d="M315 -301h177v-39h-342v2109h342v-38h-177v-2032z" />
<glyph unicode="\" horiz-adv-x="700" d="M78 1546l584 -1612l-41 -14l-584 1612z" />
<glyph unicode="]" horiz-adv-x="573" d="M258 -301v2032h-176v38h342v-2109h-342v39h176z" />
<glyph unicode="^" horiz-adv-x="561" d="M514 1057h-65l-168 368l-168 -368h-66l217 442h33z" />
<glyph unicode="_" horiz-adv-x="933" d="M47 -86h840v-41h-840v41z" />
<glyph unicode="`" horiz-adv-x="442" d="M188 1638h-106l262 -237l16 29z" />
<glyph unicode="a" horiz-adv-x="1249" d="M1006 -27q-106 0 -163.5 40.5t-80.5 119.5h-8q-32 -79 -98 -122.5t-203 -43.5q-177 0 -280 75t-103 214q0 338 663 358v170q0 79 -12 127.5t-39.5 72.5t-61 32t-88.5 8q-87 0 -134.5 -15.5t-41.5 -45.5q1 -9 6.5 -17t10 -11.5t15 -11.5t13.5 -10q52 -36 52 -98 q0 -63 -43 -102t-103 -39q-63 0 -102 41t-39 112q0 115 109.5 172.5t304.5 57.5q78 0 138 -8t118 -31.5t95 -62.5t60 -104.5t23 -154.5v-612q0 -70 59 -70q43 0 75.5 41.5t43.5 102.5l27 -8q-31 -100 -76.5 -138.5t-136.5 -38.5zM528 6q96 0 150.5 67.5t54.5 155.5v357 q-93 -1 -154.5 -11.5t-103 -30t-63.5 -56t-30.5 -83t-8.5 -118.5q0 -149 33 -215t122 -66z" />
<glyph unicode="b" horiz-adv-x="1280" d="M721 1057q69 0 135 -16t131 -55.5t113 -99t78 -153.5t30 -211q0 -161 -54.5 -285.5t-165 -197t-263.5 -72.5q-39 0 -71.5 6.5t-56.5 20.5t-40.5 26t-32 34t-21.5 31.5t-18 31.5h-10l-14 -117h-430v33h172v1433h-172v33h305q61 0 149 27v-600h11q39 69 90.5 100t134.5 31z M696 0q113 0 159 114.5t46 379.5q0 277 -49 403.5t-164 126.5q-215 0 -215 -500q0 -278 56.5 -401t166.5 -123z" />
<glyph unicode="c" horiz-adv-x="1112" d="M997 244l31 -13q-114 -264 -426 -264q-107 0 -196 30t-150 81.5t-103 121t-61.5 147t-19.5 161.5q0 83 18.5 160t60 148.5t103 124.5t153.5 84.5t205 31.5q181 0 297.5 -72.5t116.5 -181.5q0 -67 -42.5 -117.5t-119.5 -50.5q-72 0 -114.5 44t-42.5 107q0 36 15 65.5 t33.5 54.5t22.5 42q7 26 -15 44t-55.5 25t-72.5 7q-150 0 -203 -107.5t-53 -386.5q0 -297 57.5 -412.5t204.5 -115.5q132 0 225 69.5t131 172.5z" />
<glyph unicode="d" horiz-adv-x="1280" d="M1077 33h170v-33h-438l-4 119h-10q-1 -1 -10.5 -18.5t-13 -22.5t-15 -21.5t-20 -23t-23.5 -20t-31 -19.5t-37 -13.5t-46 -10.5t-54 -3q-216 0 -344.5 146t-128.5 397q0 137 40.5 244.5t108.5 172t151.5 97.5t176.5 33q92 0 148 -35t87 -102h11v546h-156v33h289 q61 0 149 27v-1493zM584 0q40 0 72.5 14t61.5 49.5t48 92t30 144t11 202.5q0 132 -13.5 228.5t-34.5 152t-54 88.5t-65 43t-75 10q-41 0 -70.5 -11.5t-50.5 -39t-33.5 -62.5t-19.5 -93t-9.5 -120t-2.5 -153q0 -73 1.5 -125t6 -113t13 -102.5t24 -83t37 -66.5t52.5 -40 t71 -15z" />
<glyph unicode="e" horiz-adv-x="1112" d="M647 2q122 0 214.5 67.5t135.5 174.5l31 -13q-125 -264 -418 -264q-135 0 -240.5 45t-169 122t-96 173.5t-32.5 206.5q0 107 32 203t92.5 172.5t158 122t218.5 45.5q223 0 345 -137t122 -375h-106h-166h-393v-19q0 -286 59.5 -405t212.5 -119zM578 1024 q-75 0 -116.5 -36.5t-63 -133t-23.5 -276.5h393q-1 181 -19.5 276.5t-58 132.5t-112.5 37z" />
<glyph unicode="f" horiz-adv-x="774" d="M31 991v33h172v119q0 76 19.5 145t57 126t100.5 90.5t144 33.5q93 0 158.5 -41t65.5 -121q0 -57 -36 -98t-98 -41q-55 0 -90 33t-35 86q0 33 13.5 55.5t33 39t23.5 24.5q5 8 0 15t-19.5 11t-35.5 4q-64 0 -103 -38.5t-39 -116.5q0 -40 12.5 -73.5t31 -56.5t36.5 -45 t30.5 -49.5t12.5 -58.5v-43h170v-33h-170v-958h170v-33h-624v33h172v958h-172z" />
<glyph unicode="g" horiz-adv-x="1169" d="M926 1161q0 26 12 44t25.5 30.5t15.5 21.5q3 13 -8.5 20t-26.5 7q-52 0 -93.5 -40t-41.5 -118q0 -100 65 -155q136 -95 136 -260q0 -71 -26 -129.5t-69.5 -98t-102 -66.5t-121.5 -39.5t-130 -12.5q-191 0 -315 88q-47 -36 -47 -93q0 -45 29 -72t110.5 -48t241.5 -41 q67 -8 114 -15t103.5 -19t94.5 -27t76.5 -38.5t61.5 -53.5t37 -71t14 -92q0 -163 -131 -254.5t-383 -91.5q-223 0 -346 68.5t-123 171.5q0 40 14 74t34.5 55t39 34t33.5 17l35 -8q-115 -56 -115 -164q0 -64 52.5 -113.5t142.5 -75.5t201 -26q72 0 125.5 17t82.5 47t42.5 64 t13.5 73q0 43 -16.5 77t-41.5 55t-62.5 36t-72.5 22t-78 12q-64 8 -104.5 14t-95 17t-88.5 23.5t-71.5 32.5t-58.5 44.5t-35 59t-14 76.5q0 46 14.5 83.5t42 64.5t51.5 44t58 35q-112 91 -112 244q1 88 39.5 156t103.5 108t141.5 60.5t161.5 21.5q142 0 246 -49 q-31 60 -31 118q0 85 51 135t134 50q69 0 123.5 -34.5t54.5 -98.5q0 -47 -30 -83t-83 -36q-46 0 -73 29t-27 73zM561 395q90 0 131 74t41 242q0 167 -41 241t-131 74q-89 0 -129.5 -74t-40.5 -241t40.5 -241.5t129.5 -74.5z" />
<glyph unicode="h" horiz-adv-x="1355" d="M1153 33h170v-33h-594v33h141v696q0 154 -39.5 217.5t-117.5 63.5q-74 0 -134.5 -67t-93.5 -167v-743h142v-33h-596v33h172v1433h-172v33h301q61 0 153 27v-656h9q97 187 294 187q176 0 270.5 -91.5t94.5 -297.5v-635z" />
<glyph unicode="i" horiz-adv-x="688" d="M348 1225q-70 0 -114 44t-44 113t44 113.5t114 44.5q69 0 112.5 -44.5t43.5 -113.5t-43.5 -113t-112.5 -44zM31 991v33h309q64 0 145 25v-1016h170v-33h-624v33h172v958h-172z" />
<glyph unicode="j" horiz-adv-x="696" d="M391 1225q-69 0 -112 44t-43 113t43 113.5t112 44.5q70 0 114 -44.5t44 -113.5t-44 -113t-114 -44zM76 991v33h309q72 0 145 25v-916q0 -269 -100.5 -432.5t-282.5 -163.5q-105 0 -181.5 53.5t-76.5 149.5q0 65 34.5 97t84.5 32q49 0 82 -26.5t33 -75.5q0 -24 -11 -44 t-25 -32t-28 -27t-18 -29q-8 -30 13.5 -47.5t78.5 -17.5q67 0 99.5 31.5t35.5 99.5q1 40 -10 143t-10 138v1009h-172z" />
<glyph unicode="k" horiz-adv-x="1339" d="M1178 33h129v-33h-549v33h121l-304 528l-90 -76v-452h119v-33h-573v33h172v1433h-172v33h305q61 0 149 27v-987l531 452h-139v33h329v-33h-129l-307 -262z" />
<glyph unicode="l" horiz-adv-x="688" d="M31 1466v33h301q61 0 153 27v-1493h170v-33h-624v33h172v1433h-172z" />
<glyph unicode="m" horiz-adv-x="1984" d="M1780 33h172v-33h-588v33h135v723q0 133 -36.5 195.5t-112.5 62.5q-93 0 -152 -77.5t-65 -182.5v-721h135v-33h-551v33h133v715q0 131 -33 198.5t-117 67.5q-92 0 -149.5 -76.5t-65.5 -179.5v-725h133v-33h-587v33h172v958h-172v33h309q75 0 145 25v-148h9q17 32 37 57 t53.5 49t84.5 37t117 13q133 0 220.5 -55t115.5 -154q64 209 312 209q346 0 346 -336v-688z" />
<glyph unicode="n" horiz-adv-x="1355" d="M1153 33h170v-33h-594v33h141v680q0 147 -39.5 222t-115.5 75q-75 0 -135 -67.5t-95 -170.5v-739h142v-33h-596v33h172v958h-172v33h309q75 0 145 25v-179h9q47 91 115.5 139t181.5 48q172 0 267 -91t95 -286v-647z" />
<glyph unicode="o" horiz-adv-x="1202" d="M602 -33q-110 0 -205 35t-168 101.5t-115 172t-42 236.5t42 236.5t115 172t168 101.5t205 35t205 -35t167.5 -102t114 -172t41.5 -236t-41.5 -236t-114 -172t-167.5 -102t-205 -35zM602 -2q81 0 128 45t71 158t24 311t-24 311t-71 158t-128 45q-82 0 -129 -45 t-70.5 -157.5t-23.5 -311.5t23.5 -311.5t70.5 -157.5t129 -45z" />
<glyph unicode="p" horiz-adv-x="1259" d="M31 1024h288q76 0 146 25v-111h10q70 119 232 119q99 0 184.5 -33t152.5 -96.5t105.5 -166.5t38.5 -233q0 -251 -135 -406t-351 -155q-66 0 -112.5 18.5t-69 43t-45.5 65.5h-10v-459h149v-32h-583v32h151v1356h-151v33zM453 518q0 -189 26 -305t73.5 -164.5t121.5 -48.5 t118.5 50.5t66.5 167t22 312.5q0 256 -43.5 375t-161.5 119q-122 0 -172.5 -124.5t-50.5 -381.5z" />
<glyph unicode="q" horiz-adv-x="1259" d="M1227 1024v-33h-150v-1356h150v-32h-582v32h150v467h-11q-71 -135 -227 -135q-221 0 -353 143.5t-132 395.5q0 134 40.5 241t108.5 173.5t153 101.5t179 35q159 0 231 -119h11l16 86h416zM807 520q0 259 -51.5 381.5t-171.5 122.5q-43 0 -75.5 -17.5t-55 -52t-37.5 -78 t-23 -105t-11 -123t-3 -140.5q0 -196 21.5 -307t65.5 -156t120 -45q66 0 114 49t77.5 168t29.5 303z" />
<glyph unicode="r" horiz-adv-x="1103" d="M795 1059q112 0 182 -64.5t70 -167.5q0 -81 -45.5 -125.5t-120.5 -44.5q-76 0 -121 44t-45 108q0 31 13.5 57t30 40t33.5 33t23 36q9 26 -5 38.5t-48 12.5q-67 0 -120 -47.5t-85 -125.5t-50 -167.5t-22 -185.5v-467h232v-33h-686v33h172v958h-172v33h309q75 0 145 25 v-252h9q12 32 22 55t28.5 57t40.5 57.5t52 46t70.5 34.5t87.5 12z" />
<glyph unicode="s" horiz-adv-x="931" d="M430 -33q-67 0 -129.5 16t-107.5 32t-70 16q-34 0 -39 -31h-21l19 360h24q-5 -174 72 -267t242 -93q235 0 235 162q0 36 -12.5 66t-30.5 51.5t-56.5 45.5t-71.5 40.5t-95 44.5q-35 16 -54.5 25t-56 29.5t-58.5 38t-50.5 45.5t-44.5 56.5t-27.5 67.5t-11.5 82 q0 133 98 218t265 85q81 0 155 -22.5t92 -22.5q38 0 41 30h23l-2 -264h-25q-23 246 -284 246q-89 0 -125.5 -38t-36.5 -91q0 -39 17 -70.5t50 -56t67 -42t83 -40.5q9 -4 14 -6q158 -76 203 -105q94 -62 120 -148q13 -43 13 -101q0 -161 -122.5 -260t-301.5 -99z" />
<glyph unicode="t" horiz-adv-x="860" d="M547 -33q-150 0 -240 79.5t-90 221.5v723h-149v33q178 0 278.5 108t110.5 269h41v-377h311v-33h-309v-817q0 -83 31.5 -125.5t86.5 -42.5q69 0 120 43.5t65 110.5l26 -10q-29 -99 -99.5 -141t-182.5 -42z" />
<glyph unicode="u" horiz-adv-x="1402" d="M1200 33h172v-33h-452v156h-11q-29 -45 -55 -74.5t-65 -58t-91.5 -42.5t-119.5 -14q-80 0 -145 17t-118 55t-82.5 106.5t-29.5 163.5v682h-172v33h454v-690q0 -159 46 -240.5t131 -81.5q83 0 156 75.5t102 178.5v725h-148v33h285q73 0 143 25v-1016z" />
<glyph unicode="v" horiz-adv-x="1247" d="M1217 1024v-33h-119q-32 -232 -131.5 -466.5t-268.5 -540.5h-77l-459 1007h-131v33h553v-33h-121l328 -760q107 211 174 395t92 365h-129v33h289z" />
<glyph unicode="w" horiz-adv-x="1751" d="M1720 1024v-33h-118q-2 -103 -23.5 -205t-66.5 -212t-82 -187t-106 -207t-101 -196h-70l-233 591q-45 -117 -155.5 -327.5t-135.5 -263.5h-70l-397 1007h-131v33h561v-33h-133l276 -723q119 232 164 363l-143 360h-121v33h549v-33h-131l272 -729q114 220 173.5 386.5 t62.5 342.5h-131v33h290z" />
<glyph unicode="x" horiz-adv-x="1169" d="M1004 33h133v-33h-570v33h125l-217 395l-262 -395h162v-33h-344v33h141l285 430l-291 528h-135v33h569v-33h-123l195 -354l233 354h-121v33h277v-33h-115l-256 -387z" />
<glyph unicode="y" horiz-adv-x="1216" d="M883 1024h303v-33h-131q-57 -328 -137.5 -592.5t-181.5 -458t-226 -298.5t-264 -105q-108 0 -190.5 61.5t-82.5 147.5q0 61 36 96t91 35q60 0 93.5 -34.5t33.5 -88.5q0 -29 -12 -49.5t-27 -29.5t-30.5 -21t-20.5 -23q-8 -25 25.5 -43t91.5 -18q216 0 405 307l-516 1114 h-127v33h549v-33h-125l365 -805q128 328 209 805h-131v33z" />
<glyph unicode="z" horiz-adv-x="993" d="M895 336h25l-35 -336h-817v33l546 958h-225q-97 0 -162.5 -65t-83.5 -172h-24l33 270h755v-33l-547 -958h261q69 0 120 25t81 71t46 94.5t27 112.5z" />
<glyph unicode="{" horiz-adv-x="675" d="M428 31q0 -143 50 -241.5t116 -98.5v-31q-25 0 -55 4.5t-70 16.5t-77.5 31.5t-75 52t-65 74t-44.5 102.5t-17 133q0 99 34 216t38 226q3 89 -22.5 126t-110.5 60v25q82 22 107.5 58.5t25.5 113.5q0 94 -18 165t-36 138.5t-18 153.5q0 99 33 176.5t79.5 120.5t105.5 71 t104 36.5t82 8.5v-30q-60 0 -113 -92.5t-53 -243.5q0 -99 21.5 -222t21.5 -198q0 -66 -18 -115t-43 -75.5t-64 -44.5t-68 -23.5t-67 -9.5q59 -5 102.5 -18.5t81 -42t57 -80t19.5 -125.5q0 -81 -21.5 -201t-21.5 -217z" />
<glyph unicode="|" horiz-adv-x="344" d="M150 1499h45v-1730h-45v1730z" />
<glyph unicode="}" horiz-adv-x="675" d="M248 31q0 97 -21.5 217t-21.5 201q0 74 19.5 125.5t57 80t81 42t102.5 18.5q-38 4 -67 9.5t-68 23.5t-64 44.5t-43 75.5t-18 115q0 75 21.5 198t21.5 222q0 151 -53 243.5t-113 92.5v30q37 0 81.5 -8.5t103.5 -36.5t106 -71t79.5 -120.5t32.5 -176.5q0 -101 -35.5 -221.5 t-35.5 -235.5q0 -77 25.5 -113.5t107.5 -58.5v-25q-85 -23 -110.5 -60t-22.5 -126q4 -109 37.5 -226t33.5 -216t-32.5 -176.5t-79 -121t-105.5 -71t-104 -36.5t-82 -9v31q66 0 116 98.5t50 241.5z" />
<glyph unicode="~" horiz-adv-x="614" d="M47 674q6 51 45.5 87t97.5 36q32 0 60 -12.5t48.5 -29.5t40 -34.5t44.5 -30t53 -12.5q83 0 103 82h28q-8 -54 -47 -88.5t-96 -34.5q-32 0 -60 12.5t-48.5 29.5t-40 34.5t-44.5 30t-53 12.5q-82 0 -102 -82h-29z" />
<glyph unicode="&#xa1;" horiz-adv-x="595" d="M313 819q-57 0 -97 39t-40 98t40.5 98.5t96.5 39.5q57 0 97.5 -39.5t40.5 -98.5t-40.5 -98t-97.5 -39zM313 -469q78 0 120 62t42 186q0 120 -14.5 208.5t-35.5 149t-42.5 126.5t-38 180.5t-18.5 271.5h-27q-4 -157 -21.5 -271.5t-38.5 -180.5t-41 -127t-34 -149t-14 -208 q0 -248 163 -248z" />
<glyph unicode="&#xa2;" horiz-adv-x="1112" d="M1028 231q-16 -36 -33 -65.5t-51.5 -67.5t-76 -64.5t-106.5 -45.5t-143 -21v-86h-32v86q-104 2 -190 33.5t-145 82.5t-100 120t-60 145.5t-19 159.5q0 81 17.5 156.5t57.5 146t98.5 123.5t146 86.5t194.5 36.5v102h32v-102q178 -1 293 -73.5t115 -180.5 q0 -67 -42.5 -117.5t-119.5 -50.5q-72 0 -114.5 44t-42.5 107q0 36 15 65.5t33.5 54.5t22.5 42q7 26 -15 44t-55.5 25t-72.5 7q-150 0 -203 -107.5t-53 -386.5q0 -297 57.5 -412.5t204.5 -115.5q132 0 225 69.5t131 172.5z" />
<glyph unicode="&#xa3;" horiz-adv-x="1144" d="M1044 420h25q0 -232 -81 -342.5t-263 -110.5q-75 0 -153.5 20t-131.5 43.5t-108.5 43t-89.5 18.5q-37 0 -65 -21t-50 -71h-41q-11 71 6 123t70 98q61 56 93 112.5t36 114t-5 105.5t-32 111h-135v32h125q-28 73 -40.5 107t-27 98t-14.5 119q0 128 67 231t178.5 159 t243.5 56q146 0 240 -69.5t94 -200.5q0 -91 -46.5 -146t-127.5 -55q-72 0 -121 43t-49 121q0 65 36.5 110.5t104.5 49.5q23 2 43.5 -3t32 -11.5t20.5 -12t12 -5.5t3 9q0 60 -69.5 99t-151.5 39q-56 0 -94.5 -20.5t-61.5 -54.5t-36 -94.5t-17 -124.5t-4 -159q0 -167 -15 -285 h332l-14 -32h-322q-42 -261 -227 -422q80 39 166 39t176.5 -23.5t172.5 -47t149 -22.5q167 0 167 232z" />
<glyph unicode="&#xa4;" horiz-adv-x="1220" d="M1059 512q0 -173 -115 -301l117 -117l-33 -33l-117 117q-128 -115 -301 -115t-301 115l-116 -117l-33 33l116 117q-114 127 -114 301t114 301l-116 117l33 33l116 -117q128 115 301 115t301 -115l117 117l33 -33l-117 -117q115 -128 115 -301zM610 106q166 0 283 118.5 t117 287.5t-117 287.5t-283 118.5t-282.5 -118.5t-116.5 -287.5t116.5 -287.5t282.5 -118.5z" />
<glyph unicode="&#xa5;" horiz-adv-x="1413" d="M1034 1434h344v-33h-118l-345 -660h164v-32h-180v-160h180v-33h-180v-483h180v-33h-661v33h182v483h-182v33h182v137l-14 23h-168v32h149l-383 660h-149v33h614v-33h-151l374 -653l342 653h-180v33z" />
<glyph unicode="&#xa6;" horiz-adv-x="344" d="M150 856v643h45v-643h-45zM195 412v-643h-45v643h45z" />
<glyph unicode="&#xa7;" horiz-adv-x="909" d="M717 264q110 -102 110 -284q0 -193 -113.5 -301.5t-299.5 -108.5q-83 0 -148.5 21t-104.5 56t-59 76t-20 84q0 67 44 113.5t107 46.5t106.5 -40.5t43.5 -106.5q0 -70 -50 -110t-116 -40q47 -38 92.5 -52.5t104.5 -14.5q145 0 210.5 66.5t65.5 174.5q0 27 -3.5 49.5 t-14 43.5t-20.5 36.5t-32.5 33.5t-40 30.5t-52.5 32t-60.5 32.5t-73.5 37q-42 21 -66.5 34t-61 35.5t-57.5 42t-46 49t-38.5 60.5t-22.5 72.5t-9 89.5q0 201 135 297q-135 104 -135 281q0 166 99 266t262 100q156 0 249 -78.5t93 -181.5q0 -71 -45.5 -118.5t-106.5 -47.5 q-67 0 -109 44t-42 106q0 66 49.5 107.5t115.5 41.5q-19 42 -74 68.5t-124 26.5q-100 0 -169 -54t-69 -147q0 -40 15.5 -74t37.5 -58t62 -48.5t71.5 -40t84.5 -37.5q47 -20 72.5 -32t66.5 -34.5t64 -42.5t52 -52.5t44 -67.5t25.5 -83.5t10.5 -105.5q0 -192 -110 -293z M223 655q0 -50 18.5 -88.5t59 -70t82 -53t109.5 -50.5q124 -54 174 -88q24 49 24 123q0 27 -2.5 48t-12.5 41t-18 34t-30.5 32.5t-38 30t-53.5 32.5t-63 34t-79 41q-105 56 -121 67q-49 -55 -49 -133z" />
<glyph unicode="&#xa8;" horiz-adv-x="514" d="M147 1458q-26 0 -45.5 20t-19.5 46t19.5 45.5t45.5 19.5q28 0 48 -19.5t20 -45.5t-20 -46t-48 -20zM365 1458q-26 0 -46 20t-20 46t20 45.5t46 19.5q28 0 47.5 -19.5t19.5 -45.5t-20 -46t-47 -20z" />
<glyph unicode="&#xa9;" horiz-adv-x="1654" d="M825 -33q-155 0 -295 59.5t-240 160t-159 239t-59 291.5q0 204 99.5 376t273 272.5t380.5 100.5q156 0 297 -59t241.5 -159.5t160 -239t59.5 -291.5t-59.5 -291.5t-160 -239t-241.5 -160t-297 -59.5zM825 0q125 0 238.5 38.5t199.5 106.5t149.5 158t96.5 196.5t33 217.5 t-33 217.5t-96.5 196.5t-149.5 158t-199.5 106.5t-238.5 38.5q-155 0 -290 -59.5t-226.5 -159t-143.5 -229.5t-52 -269t52 -269t143.5 -229.5t226.5 -159t290 -59.5zM1237 451l31 -13q-114 -264 -426 -264q-133 0 -237.5 45.5t-167 123t-94.5 172t-32 200.5q0 83 18.5 160 t60.5 148.5t103 124.5t153.5 84.5t205.5 31.5q181 0 297.5 -72.5t116.5 -181.5q0 -67 -42.5 -117.5t-119.5 -50.5q-72 0 -115 44t-43 107q0 36 15 65.5t34 54.5t23 42q7 26 -15.5 44t-56 25t-72.5 7q-150 0 -203 -107.5t-53 -386.5q0 -297 58 -412.5t205 -115.5 q132 0 225 69.5t131 172.5z" />
<glyph unicode="&#xaa;" horiz-adv-x="806" d="M612 870q-65 0 -99.5 23.5t-49.5 67.5q-17 -45 -55.5 -70t-116.5 -25q-101 0 -161 44.5t-60 125.5q0 103 102 155t274 52v103q0 61 -23.5 95t-88.5 34q-50 0 -78 -12t-23 -31q4 -11 25 -37.5t21 -51.5q0 -30 -21 -50.5t-57 -20.5q-35 0 -58.5 22t-23.5 60q0 68 64 106.5 t188 38.5q41 0 74 -4t67.5 -17.5t57 -35t37 -59t14.5 -87.5v-358q0 -39 34 -39q45 0 66 80l18 -6q-18 -62 -45.5 -82.5t-81.5 -20.5zM340 895q47 0 76.5 36.5t29.5 82.5v203q-116 0 -160 -34.5t-44 -135.5q0 -78 23 -115t75 -37z" />
<glyph unicode="&#xab;" horiz-adv-x="1046" d="M102 524l430 -368l19 16l-268 356l268 357l-19 16l-430 -369v-8zM496 524l430 -368l18 16l-268 356l268 357l-18 16l-430 -369v-8z" />
<glyph unicode="&#xac;" horiz-adv-x="649" d="M47 737h555v-272h-41v231h-514v41z" />
<glyph unicode="&#xad;" horiz-adv-x="505" d="M47 573l412 123v-41l-412 -123v41z" />
<glyph unicode="&#xae;" horiz-adv-x="1236" d="M618 1647q115 0 221 -45.5t183 -121.5t122.5 -181.5t45.5 -219.5q0 -153 -77 -283.5t-209 -207t-286 -76.5t-285.5 76.5t-208.5 207t-77 283.5t77 284t208.5 207.5t285.5 76.5zM618 545q145 0 267.5 72t193 195t70.5 267q0 108 -42 207t-112.5 171t-169 114.5 t-207.5 42.5q-145 0 -267 -72t-192.5 -195.5t-70.5 -267.5t70.5 -267t192.5 -195t267 -72zM987 768l10 -8q-19 -58 -127 -58q-81 0 -114 45t-49 134q-18 96 -32 124q-26 48 -87 48h-33v-312h86v-24h-344v24h88v668h-88v25h258h82q242 0 242 -179q0 -154 -181 -180v-2 q85 -5 128.5 -35.5t56.5 -109.5q1 -8 6.5 -71t16.5 -96.5t34 -33.5t47 41zM606 1077q47 0 70.5 33.5t23.5 128.5q0 57 -7 92t-23 51.5t-32.5 21.5t-43.5 5h-39v-332h51z" />
<glyph unicode="&#xaf;" horiz-adv-x="534" d="M82 1516h371v-33h-371v33z" />
<glyph unicode="&#xb0;" horiz-adv-x="380" d="M190 1200q-58 0 -100.5 45.5t-42.5 104.5t42.5 104t100.5 45t101 -45t43 -104t-43 -104.5t-101 -45.5zM190 1233q40 0 71.5 35t31.5 82t-31.5 81.5t-71.5 34.5t-71 -34.5t-31 -81.5t31 -82t71 -35z" />
<glyph unicode="&#xb1;" horiz-adv-x="610" d="M563 737v-41h-237v-252h-41v252h-238v41h238v252h41v-252h237zM47 371h516v-41h-516v41z" />
<glyph unicode="&#xb2;" horiz-adv-x="628" d="M563 1030h19q0 -116 -39 -171.5t-137 -55.5q-66 0 -153 30.5t-108 30.5q-40 0 -59 -45h-33q-9 43 -4 80t13 62.5t26.5 49t35 38t40.5 30.5q79 52 106 77q84 82 84 226q0 81 -24 113.5t-72 32.5q-56 0 -96 -24.5t-41 -71.5q32 19 57 16q32 -3 51 -26t19 -56 q0 -38 -26.5 -62t-61.5 -24q-43 0 -68.5 29.5t-25.5 76.5q0 78 61.5 122t165.5 44q109 0 183.5 -49.5t74.5 -152.5q0 -34 -9 -63.5t-21.5 -51t-35 -42t-41.5 -33t-50 -27.5t-50.5 -22t-53 -19.5t-48.5 -18.5q-83 -33 -125.5 -82t-36.5 -133h4q9 59 60 96t118 37 q43 0 127 -26.5t111 -26.5q31 0 47 21t16 71z" />
<glyph unicode="&#xb3;" horiz-adv-x="624" d="M250 827q135 0 135 179q0 97 -36 147.5t-118 50.5v21q80 0 108 34t28 115q0 77 -24.5 115.5t-82.5 38.5q-45 0 -84.5 -20t-40.5 -60q27 23 60 18q31 -1 50 -24t19 -56q0 -38 -23 -62t-63 -24q-43 0 -67.5 31t-24.5 76q0 68 56.5 106.5t162.5 38.5q109 0 171.5 -39.5 t62.5 -115.5q0 -51 -28.5 -90t-66.5 -57.5t-82 -26.5v-6q106 -10 161 -68.5t55 -138.5q0 -101 -81.5 -154t-211.5 -53q-120 0 -179 47.5t-59 120.5q0 54 26.5 87.5t69.5 33.5q42 0 71.5 -27.5t29.5 -69.5q0 -33 -22 -58t-56 -28q-37 -5 -66 19q1 -43 44.5 -72t105.5 -29z " />
<glyph unicode="&#xb4;" horiz-adv-x="442" d="M254 1638l-172 -208l16 -29l262 237h-106z" />
<glyph unicode="&#xb5;" horiz-adv-x="1402" d="M1200 33h172v-33h-452v156h-11q-30 -45 -50.5 -70t-59.5 -57t-94 -47t-127 -15q-52 0 -93 8v-372h-454v32h172v1356h-172v33h454v-690q0 -158 47 -240t130 -82q82 0 154 71.5t104 176.5l-2 764h137q75 0 145 25v-1016z" />
<glyph unicode="&#xb6;" horiz-adv-x="872" d="M825 1401h-129v-1798h129v-33h-170v1831h-198v-1831h-170v33h129v1114h-23q-88 0 -166.5 43.5t-129 127t-50.5 187.5q0 105 50.5 189t129 127t166.5 43h432v-33z" />
<glyph unicode="&#xb7;" horiz-adv-x="499" d="M250 668q56 0 96.5 -39.5t40.5 -98.5t-40 -98t-97 -39t-97 39t-40 98t40.5 98.5t96.5 39.5z" />
<glyph unicode="&#xb8;" horiz-adv-x="518" d="M258 -414q-81 0 -128.5 45t-47.5 119h29q0 -61 31.5 -96t84.5 -35q36 0 55 23.5t19 62.5q0 48 -44.5 80.5t-131.5 32.5l106 166h35l-45 -70q23 0 49.5 -5t56.5 -18t53.5 -31.5t39.5 -48.5t16 -67q0 -67 -48 -112.5t-130 -45.5z" />
<glyph unicode="&#xb9;" horiz-adv-x="471" d="M322 844h88v-25h-349v25h89v510q0 34 -12.5 47.5t-43.5 13.5h-33v17q144 28 248 120h13v-708z" />
<glyph unicode="&#xba;" horiz-adv-x="757" d="M379 866q-134 0 -221.5 84t-87.5 234q0 149 87.5 232t221.5 83q136 0 222.5 -83t86.5 -232q0 -150 -86.5 -234t-222.5 -84zM379 889q44 0 69.5 23t39.5 88t14 182t-14 182.5t-39.5 89t-69.5 23.5t-69 -23t-39.5 -88t-14.5 -182t14.5 -182.5t40 -89t68.5 -23.5z" />
<glyph unicode="&#xbb;" horiz-adv-x="1046" d="M551 524v8l-430 369l-19 -16l269 -357l-269 -356l19 -16zM944 524v8l-430 369l-18 -16l268 -357l-268 -356l18 -16z" />
<glyph unicode="&#xbc;" horiz-adv-x="1060" d="M827 1466h45l-673 -1499h-45zM410 741v-24h-349v24h89v510q0 34 -12.5 48t-43.5 14h-33v16q143 28 248 121h13v-709h88zM987 199h-92v-174h90v-25h-348v25h88v174h-268v14l260 504h178v-490h25q34 0 47 31q5 14 16 68h16zM500 227h225v445z" />
<glyph unicode="&#xbd;" horiz-adv-x="1138" d="M815 1466h45l-674 -1499h-45zM322 741h88v-24h-349v24h89v510q0 34 -12.5 48t-43.5 14h-33v16q143 28 248 121h13v-709zM1059 211h18q0 -116 -39 -171.5t-137 -55.5q-66 0 -152.5 30.5t-107.5 30.5q-40 0 -59 -45h-33q-16 102 15 159.5t95 100.5q79 52 105 77 q86 81 86 226q0 81 -24 113.5t-72 32.5q-56 0 -96.5 -25t-41.5 -72q34 20 58 17q32 -3 50.5 -26t18.5 -56q0 -38 -26.5 -62t-61.5 -24q-43 0 -68.5 29.5t-25.5 76.5q0 78 61.5 122t165.5 44q109 0 184 -50t75 -153q0 -34 -9 -63.5t-21.5 -51t-35 -41.5t-42 -33t-50 -27.5 t-50.5 -22t-53.5 -19.5t-48.5 -18q-83 -33 -125.5 -82t-36.5 -133h5q9 59 60 96t118 37q43 0 126.5 -26.5t110.5 -26.5q64 0 64 92z" />
<glyph unicode="&#xbe;" horiz-adv-x="1208" d="M965 1466h45l-674 -1499h-45zM592 907q0 -101 -81.5 -154t-211.5 -53q-120 0 -179 47.5t-59 120.5q0 54 27 87.5t70 33.5q42 0 71 -27t29 -69q0 -33 -22 -58t-56 -28q-38 -5 -65 18q1 -43 44 -71.5t105 -28.5q66 0 100.5 41.5t34.5 136.5q0 97 -36 148t-117 51v20 q80 0 107.5 34.5t27.5 115.5q0 77 -24.5 115t-82.5 38q-45 0 -84 -19.5t-40 -59.5q27 22 59 18q32 -1 51 -24t19 -56q0 -38 -23 -62t-63 -24q-43 0 -68 31t-25 76q0 68 56.5 106.5t162.5 38.5q109 0 171.5 -40t62.5 -116q0 -51 -28.5 -90t-66 -57.5t-81.5 -26.5v-6 q106 -10 160.5 -68.5t54.5 -138.5zM1135 199h-93v-174h91v-25h-349v25h88v174h-268v14l260 504h178v-490h25q34 0 47 31q5 14 16 68h17zM647 227h225v445z" />
<glyph unicode="&#xbf;" horiz-adv-x="882" d="M485 782q-56 0 -96.5 39.5t-40.5 98.5t40 98t97 39t97.5 -39t40.5 -98t-40.5 -98.5t-97.5 -39.5zM487 670h25q67 -152 -25 -303q-41 -69 -64.5 -114t-54 -117t-45 -150t-14.5 -164q0 -289 223 -289q109 0 190 56.5t81 140.5q0 9 -3 9l-20 -19q-45 -41 -104 -42 q-72 0 -121 50t-49 127q0 81 54 129.5t130 48.5q83 0 132.5 -55.5t49.5 -147.5q0 -62 -20.5 -117.5t-66 -105.5t-130.5 -79.5t-202 -29.5q-213 0 -328 101.5t-115 267.5q0 77 23.5 143.5t59.5 112.5t84 90.5t93 76.5t91 72t73 76q73 100 53 232z" />
<glyph unicode="&#xc0;" horiz-adv-x="1409" d="M877 1575l-5 -33l-358 240h119zM1260 33h133v-33h-629v33h160l-148 432h-446l-150 -432h187v-33h-351v33h119l496 1427h129zM344 506h418l-207 606z" />
<glyph unicode="&#xc1;" horiz-adv-x="1409" d="M877 1782l-359 -240l-4 33l244 207h119zM1260 33h133v-33h-629v33h160l-148 432h-446l-150 -432h187v-33h-351v33h119l496 1427h129zM344 506h418l-207 606z" />
<glyph unicode="&#xc2;" horiz-adv-x="1409" d="M696 1704l-161 -156h-33l172 234h43l174 -234h-33zM1260 33h133v-33h-629v33h160l-148 432h-446l-150 -432h187v-33h-351v33h119l496 1427h129zM344 506h418l-207 606z" />
<glyph unicode="&#xc3;" horiz-adv-x="1409" d="M584 1700q-52 0 -76 -70l-29 10q28 107 115 107q34 0 64.5 -16t50 -35t45 -35t49.5 -16q56 0 78 69l28 -10q-28 -107 -114 -107q-33 0 -63.5 16t-50 35.5t-46 35.5t-51.5 16zM1260 33h133v-33h-629v33h160l-148 432h-446l-150 -432h187v-33h-351v33h119l496 1427h129z M344 506h418l-207 606z" />
<glyph unicode="&#xc4;" horiz-adv-x="1409" d="M588 1602q-26 0 -46 19.5t-20 45.5t20 46t46 20q28 0 47.5 -19.5t19.5 -46.5q0 -26 -19.5 -45.5t-47.5 -19.5zM805 1602q-26 0 -46 19.5t-20 45.5t20 46t46 20q27 0 47 -19.5t20 -46.5q0 -26 -19.5 -45.5t-47.5 -19.5zM1260 33h133v-33h-629v33h160l-148 432h-446 l-150 -432h187v-33h-351v33h119l496 1427h129zM344 506h418l-207 606z" />
<glyph unicode="&#xc5;" horiz-adv-x="1409" d="M694 1544q-50 0 -86.5 32.5t-36.5 90.5t37 91.5t86 33.5t86 -33.5t37 -91.5t-36.5 -90.5t-86.5 -32.5zM694 1763q-38 0 -62 -26.5t-24 -69.5t24 -68.5t62 -25.5t62 25.5t24 68.5t-24 69.5t-62 26.5zM1260 33h133v-33h-629v33h160l-148 432h-446l-150 -432h187v-33h-351 v33h119l496 1427h129zM344 506h418l-207 606z" />
<glyph unicode="&#xc6;" horiz-adv-x="1996" d="M1896 485h25v-485h-1169v33h182v432h-528l-242 -432h190v-33h-354v33h119l762 1368h-129v33h1116v-351h-25q-3 42 -16 83t-43.5 84.5t-75.5 76t-117.5 53.5t-163.5 21h-194v-643h170q53 0 91.5 26t61 74t34.5 99t20 118h24v-678h-24q-6 54 -14 95.5t-23.5 85.5t-37 73 t-55.5 47.5t-77 18.5h-170v-684h240q91 0 164.5 28t119.5 73t77.5 105.5t45 121t16.5 124.5zM428 506h506v895h-8z" />
<glyph unicode="&#xc7;" horiz-adv-x="1372" d="M1278 539q0 -263 -132 -415.5t-366 -156.5l-35 -53q29 0 63.5 -9t70 -27t59 -53.5t23.5 -80.5q0 -67 -48.5 -112.5t-130.5 -45.5q-81 0 -128.5 45t-47.5 119h29q0 -61 32 -96t85 -35q36 0 54.5 23t18.5 63q0 48 -44.5 80.5t-131.5 32.5l96 149q-139 4 -261.5 59t-214 150 t-144.5 233t-53 300q0 167 55 309.5t150 240t224 152.5t275 55q72 0 130 -13.5t88.5 -29.5t64 -29.5t61.5 -13.5q59 0 74 54h33v-416h-21q-23 182 -132.5 299t-285.5 117q-130 0 -214.5 -70t-129.5 -226.5t-45 -404.5q0 -380 103.5 -554.5t308.5 -174.5q92 0 171.5 34.5 t139 100.5t93.5 168.5t34 231.5h29z" />
<glyph unicode="&#xc8;" horiz-adv-x="1337" d="M872 1575l-4 -33l-358 240h119zM1237 485h25v-485h-1217v33h180v1368h-180v33h1167v-351h-24q-5 46 -19 87t-45 84.5t-76 75t-117.5 51.5t-164.5 20h-242v-643h185q45 0 79.5 19.5t55.5 47.5t36.5 74.5t23 84t14.5 91.5h24v-678h-24q-7 55 -14 92t-22.5 84.5t-36.5 75.5 t-55.5 48t-80.5 20h-185v-684h283q91 0 163.5 24.5t120 66t80 100.5t47.5 123t19 138z" />
<glyph unicode="&#xc9;" horiz-adv-x="1337" d="M872 1782l-358 -240l-4 33l244 207h118zM1237 485h25v-485h-1217v33h180v1368h-180v33h1167v-351h-24q-5 46 -19 87t-45 84.5t-76 75t-117.5 51.5t-164.5 20h-242v-643h185q45 0 79.5 19.5t55.5 47.5t36.5 74.5t23 84t14.5 91.5h24v-678h-24q-7 55 -14 92t-22.5 84.5 t-36.5 75.5t-55.5 48t-80.5 20h-185v-684h283q91 0 163.5 24.5t120 66t80 100.5t47.5 123t19 138z" />
<glyph unicode="&#xca;" horiz-adv-x="1337" d="M692 1704l-162 -156h-32l172 234h43l174 -234h-33zM1237 485h25v-485h-1217v33h180v1368h-180v33h1167v-351h-24q-5 46 -19 87t-45 84.5t-76 75t-117.5 51.5t-164.5 20h-242v-643h185q45 0 79.5 19.5t55.5 47.5t36.5 74.5t23 84t14.5 91.5h24v-678h-24q-7 55 -14 92 t-22.5 84.5t-36.5 75.5t-55.5 48t-80.5 20h-185v-684h283q91 0 163.5 24.5t120 66t80 100.5t47.5 123t19 138z" />
<glyph unicode="&#xcb;" horiz-adv-x="1337" d="M584 1602q-26 0 -46 19.5t-20 45.5t20 46t46 20q28 0 47.5 -19.5t19.5 -46.5q0 -26 -19.5 -45.5t-47.5 -19.5zM801 1602q-26 0 -46 19.5t-20 45.5t20 46t46 20q27 0 47 -19.5t20 -46.5q0 -26 -19.5 -45.5t-47.5 -19.5zM1237 485h25v-485h-1217v33h180v1368h-180v33h1167 v-351h-24q-5 46 -19 87t-45 84.5t-76 75t-117.5 51.5t-164.5 20h-242v-643h185q45 0 79.5 19.5t55.5 47.5t36.5 74.5t23 84t14.5 91.5h24v-678h-24q-7 55 -14 92t-22.5 84.5t-36.5 75.5t-55.5 48t-80.5 20h-185v-684h283q91 0 163.5 24.5t120 66t80 100.5t47.5 123t19 138z " />
<glyph unicode="&#xcc;" horiz-adv-x="751" d="M311 1782h-118l358 -240l4 33zM45 1434h662v-33h-185v-1368h185v-33h-662v33h182v1368h-182v33z" />
<glyph unicode="&#xcd;" horiz-adv-x="751" d="M436 1782l-243 -207l4 -33l358 240h-119zM45 1434h662v-33h-185v-1368h185v-33h-662v33h182v1368h-182v33z" />
<glyph unicode="&#xce;" horiz-adv-x="751" d="M180 1548l172 234h43l174 -234h-32l-162 156l-162 -156h-33zM45 1434h662v-33h-185v-1368h185v-33h-662v33h182v1368h-182v33z" />
<glyph unicode="&#xcf;" horiz-adv-x="751" d="M266 1602q-26 0 -45.5 19.5t-19.5 45.5t19.5 46t45.5 20q28 0 48 -20t20 -46t-20 -45.5t-48 -19.5zM483 1602q-26 0 -45.5 19.5t-19.5 45.5t19.5 46t45.5 20q28 0 48 -20t20 -46t-20 -45.5t-48 -19.5zM45 1434h662v-33h-185v-1368h185v-33h-662v33h182v1368h-182v33z" />
<glyph unicode="&#xd0;" horiz-adv-x="1552" d="M745 1442q167 0 301 -44.5t231.5 -132t150.5 -226t53 -318.5q0 -160 -43 -290.5t-130.5 -230t-231.5 -154t-335 -54.5q-43 0 -148.5 4t-162.5 4h-385v33h180v667h-133v33h133v668h-180v33h385q57 0 164.5 4t150.5 4zM686 25q99 0 166.5 14t128.5 55.5t96.5 115.5 t55.5 194.5t20 293.5q0 133 -11 237t-30.5 178.5t-51.5 127.5t-68 85.5t-87 51t-100.5 25t-116.5 6.5q-54 0 -164 -4v-672h215v-33h-215v-671q106 -4 162 -4z" />
<glyph unicode="&#xd1;" horiz-adv-x="1509" d="M653 1700q-51 0 -75 -70l-29 10q28 107 115 107q34 0 64.5 -16t49.5 -35t44.5 -35t49.5 -16q56 0 78 69l29 -10q-28 -107 -115 -107q-33 0 -63.5 16t-50 35.5t-46 35.5t-51.5 16zM1063 1434h412v-33h-183v-1413h-94l-915 1124h-9v-1079h183v-33h-412v33h180v1368h-180v33 h420l770 -985h8v952h-180v33z" />
<glyph unicode="&#xd2;" d="M731 1782h-119l359 -240l4 33zM1513 717q0 -139 -39.5 -260t-108 -209.5t-159.5 -152.5t-196 -96t-215 -32q-111 0 -216 32t-197 96t-161 152.5t-109 209.5t-40 260t40 260t109 209.5t161 152t197 95.5t216 32q110 0 215 -32t196 -95.5t159.5 -152t108 -209.5t39.5 -260z M795 -2q196 0 293.5 172.5t97.5 546.5t-97.5 546.5t-293.5 172.5q-198 0 -297 -173.5t-99 -547.5q0 -372 99 -544.5t297 -172.5z" />
<glyph unicode="&#xd3;" d="M856 1782l-244 -207l4 -33l359 240h-119zM1513 717q0 -139 -39.5 -260t-108 -209.5t-159.5 -152.5t-196 -96t-215 -32q-111 0 -216 32t-197 96t-161 152.5t-109 209.5t-40 260t40 260t109 209.5t161 152t197 95.5t216 32q110 0 215 -32t196 -95.5t159.5 -152t108 -209.5 t39.5 -260zM795 -2q196 0 293.5 172.5t97.5 546.5t-97.5 546.5t-293.5 172.5q-198 0 -297 -173.5t-99 -547.5q0 -372 99 -544.5t297 -172.5z" />
<glyph unicode="&#xd4;" d="M600 1548l172 234h43l174 -234h-33l-161 156l-162 -156h-33zM1513 717q0 -139 -39.5 -260t-108 -209.5t-159.5 -152.5t-196 -96t-215 -32q-111 0 -216 32t-197 96t-161 152.5t-109 209.5t-40 260t40 260t109 209.5t161 152t197 95.5t216 32q110 0 215 -32t196 -95.5 t159.5 -152t108 -209.5t39.5 -260zM795 -2q196 0 293.5 172.5t97.5 546.5t-97.5 546.5t-293.5 172.5q-198 0 -297 -173.5t-99 -547.5q0 -372 99 -544.5t297 -172.5z" />
<glyph unicode="&#xd5;" d="M578 1640q28 107 114 107q34 0 64.5 -16t50 -35t45 -35t49.5 -16q56 0 78 69l29 -10q-28 -107 -115 -107q-33 0 -63.5 16t-50 35.5t-46 35.5t-51.5 16q-52 0 -76 -70zM1513 717q0 -139 -39.5 -260t-108 -209.5t-159.5 -152.5t-196 -96t-215 -32q-111 0 -216 32t-197 96 t-161 152.5t-109 209.5t-40 260t40 260t109 209.5t161 152t197 95.5t216 32q110 0 215 -32t196 -95.5t159.5 -152t108 -209.5t39.5 -260zM795 -2q196 0 293.5 172.5t97.5 546.5t-97.5 546.5t-293.5 172.5q-198 0 -297 -173.5t-99 -547.5q0 -372 99 -544.5t297 -172.5z" />
<glyph unicode="&#xd6;" d="M686 1602q-26 0 -45.5 19.5t-19.5 45.5t19.5 46t45.5 20q28 0 48 -20t20 -46t-20 -45.5t-48 -19.5zM903 1602q-26 0 -45.5 19.5t-19.5 45.5t19.5 46t45.5 20q28 0 48 -20t20 -46t-20 -45.5t-48 -19.5zM1513 717q0 -139 -39.5 -260t-108 -209.5t-159.5 -152.5t-196 -96 t-215 -32q-111 0 -216 32t-197 96t-161 152.5t-109 209.5t-40 260t40 260t109 209.5t161 152t197 95.5t216 32q110 0 215 -32t196 -95.5t159.5 -152t108 -209.5t39.5 -260zM795 -2q196 0 293.5 172.5t97.5 546.5t-97.5 546.5t-293.5 172.5q-198 0 -297 -173.5t-99 -547.5 q0 -372 99 -544.5t297 -172.5z" />
<glyph unicode="&#xd7;" horiz-adv-x="512" d="M465 897l-180 -180l180 -180l-29 -29l-180 180l-180 -180l-29 29l180 180l-180 180l29 29l180 -181l180 181z" />
<glyph unicode="&#xd8;" d="M1227 1323q133 -98 209.5 -252.5t76.5 -353.5q0 -139 -39.5 -260t-108 -209.5t-159.5 -152.5t-196 -96t-215 -32q-224 0 -404 121l-82 -121h-49l98 144q-133 99 -209.5 254t-76.5 352q0 139 40 260t109 209.5t161 152t197 95.5t216 32q219 0 399 -118l80 118h49zM399 715 q0 -281 60 -455l649 963q-91 213 -313 213q-198 0 -297 -173.5t-99 -547.5zM795 -2q196 0 293.5 172.5t97.5 546.5q0 285 -60 459l-649 -961q95 -217 318 -217z" />
<glyph unicode="&#xd9;" horiz-adv-x="1572" d="M1079 1575l-4 -33l-358 240h119zM1116 1434h412v-33h-182v-934q0 -78 -14.5 -147t-51 -135t-93.5 -113t-147 -76t-206 -29q-96 0 -183 18.5t-165.5 60t-136 102.5t-91 151.5t-33.5 200.5v901h-180v33h662v-33h-183v-965q0 -225 95 -326.5t260 -101.5q187 0 302 115 t115 313v965h-180v33z" />
<glyph unicode="&#xda;" horiz-adv-x="1572" d="M1079 1782l-358 -240l-4 33l244 207h118zM1116 1434h412v-33h-182v-934q0 -78 -14.5 -147t-51 -135t-93.5 -113t-147 -76t-206 -29q-96 0 -183 18.5t-165.5 60t-136 102.5t-91 151.5t-33.5 200.5v901h-180v33h662v-33h-183v-965q0 -225 95 -326.5t260 -101.5 q187 0 302 115t115 313v965h-180v33z" />
<glyph unicode="&#xdb;" horiz-adv-x="1572" d="M899 1704l-162 -156h-32l172 234h43l174 -234h-33zM1116 1434h412v-33h-182v-934q0 -78 -14.5 -147t-51 -135t-93.5 -113t-147 -76t-206 -29q-96 0 -183 18.5t-165.5 60t-136 102.5t-91 151.5t-33.5 200.5v901h-180v33h662v-33h-183v-965q0 -225 95 -326.5t260 -101.5 q187 0 302 115t115 313v965h-180v33z" />
<glyph unicode="&#xdc;" horiz-adv-x="1572" d="M791 1602q-26 0 -46 19.5t-20 45.5t20 46t46 20q27 0 47 -19.5t20 -46.5q0 -26 -19.5 -45.5t-47.5 -19.5zM1008 1602q-26 0 -46 19.5t-20 45.5t20 46t46 20q28 0 47.5 -19.5t19.5 -46.5q0 -26 -19.5 -45.5t-47.5 -19.5zM1116 1434h412v-33h-182v-934q0 -78 -14.5 -147 t-51 -135t-93.5 -113t-147 -76t-206 -29q-96 0 -183 18.5t-165.5 60t-136 102.5t-91 151.5t-33.5 200.5v901h-180v33h662v-33h-183v-965q0 -225 95 -326.5t260 -101.5q187 0 302 115t115 313v965h-180v33z" />
<glyph unicode="&#xdd;" horiz-adv-x="1413" d="M983 1782l-358 -240l-4 33l243 207h119zM1034 1434h344v-33h-118l-361 -690v-678h180v-33h-661v33h182v653l-416 715h-149v33h614v-33h-151l374 -653l342 653h-180v33z" />
<glyph unicode="&#xde;" horiz-adv-x="1243" d="M694 324h-170v-291h183v-33h-662v33h180v1368h-180v33h662v-33h-183v-230h191q75 0 140.5 -13t124.5 -44.5t100.5 -78.5t66 -118.5t24.5 -162.5q0 -206 -122 -318t-355 -112zM649 1139h-125v-783h117q64 0 103.5 14t70.5 54.5t44 114.5t13 192q0 107 -12 183t-31 119 t-50 67.5t-60 31.5t-70 7z" />
<glyph unicode="&#xdf;" horiz-adv-x="1376" d="M1040 700q41 -26 59 -38.5t54 -38.5t53 -44t41.5 -48.5t36 -58.5t20.5 -66t9 -80q0 -160 -107.5 -259.5t-285.5 -99.5q-142 0 -224 61.5t-82 149.5q0 59 39 93t97 34q57 0 88.5 -31.5t31.5 -87.5q0 -29 -12.5 -50t-28 -31t-30.5 -21.5t-19 -22.5q-2 -7 -0.5 -15 t11.5 -16.5t25 -15t40.5 -10.5t56.5 -4q183 0 183 184q0 25 -2.5 45t-12 40.5t-15.5 33.5t-27 33.5t-30.5 30t-41.5 33.5t-46 33.5t-57 39.5q-110 77 -157.5 138.5t-47.5 146.5q0 43 13.5 82t32 67t50.5 57t58 47t64 42q5 3 26 15t27.5 16t25.5 16t26 17.5t22 18.5t21 22 t15.5 23t13.5 27t7.5 29.5t3.5 34.5q0 54 -25 93.5t-67.5 60.5t-89 30.5t-97.5 9.5t-91.5 -8t-80 -31.5t-66 -62t-43 -102.5t-16.5 -150v-1079h127v-33h-585v33h176v956v2h-176v33h178q6 96 46 181.5t109 151t173 104t229 38.5q149 0 242.5 -57t93.5 -178q0 -37 -11 -70.5 t-22 -53t-37 -44.5t-34.5 -31t-36.5 -27q-28 -20 -46.5 -36t-36.5 -44.5t-18 -56.5q0 -49 42 -93t138 -108z" />
<glyph unicode="&#xe0;" horiz-adv-x="1249" d="M543 1372h-107l262 -237l17 28zM1006 -27q-106 0 -163.5 40.5t-80.5 119.5h-8q-32 -79 -98 -122.5t-203 -43.5q-177 0 -280 75t-103 214q0 338 663 358v170q0 79 -12 127.5t-39.5 72.5t-61 32t-88.5 8q-87 0 -134.5 -15.5t-41.5 -45.5q1 -9 6.5 -17t10 -11.5t15 -11.5 t13.5 -10q52 -36 52 -98q0 -63 -43 -102t-103 -39q-63 0 -102 41t-39 112q0 115 109.5 172.5t304.5 57.5q78 0 138 -8t118 -31.5t95 -62.5t60 -104.5t23 -154.5v-612q0 -70 59 -70q43 0 75.5 41.5t43.5 102.5l27 -8q-31 -100 -76.5 -138.5t-136.5 -38.5zM528 6 q96 0 150.5 67.5t54.5 155.5v357q-93 -1 -154.5 -11.5t-103 -30t-63.5 -56t-30.5 -83t-8.5 -118.5q0 -149 33 -215t122 -66z" />
<glyph unicode="&#xe1;" horiz-adv-x="1249" d="M608 1372l-172 -209l17 -28l262 237h-107zM1006 -27q-106 0 -163.5 40.5t-80.5 119.5h-8q-32 -79 -98 -122.5t-203 -43.5q-177 0 -280 75t-103 214q0 338 663 358v170q0 79 -12 127.5t-39.5 72.5t-61 32t-88.5 8q-87 0 -134.5 -15.5t-41.5 -45.5q1 -9 6.5 -17t10 -11.5 t15 -11.5t13.5 -10q52 -36 52 -98q0 -63 -43 -102t-103 -39q-63 0 -102 41t-39 112q0 115 109.5 172.5t304.5 57.5q78 0 138 -8t118 -31.5t95 -62.5t60 -104.5t23 -154.5v-612q0 -70 59 -70q43 0 75.5 41.5t43.5 102.5l27 -8q-31 -100 -76.5 -138.5t-136.5 -38.5zM528 6 q96 0 150.5 67.5t54.5 155.5v357q-93 -1 -154.5 -11.5t-103 -30t-63.5 -56t-30.5 -83t-8.5 -118.5q0 -149 33 -215t122 -66z" />
<glyph unicode="&#xe2;" horiz-adv-x="1249" d="M381 1139l172 233h43l174 -233h-33l-162 155l-161 -155h-33zM1006 -27q-106 0 -163.5 40.5t-80.5 119.5h-8q-32 -79 -98 -122.5t-203 -43.5q-177 0 -280 75t-103 214q0 338 663 358v170q0 79 -12 127.5t-39.5 72.5t-61 32t-88.5 8q-87 0 -134.5 -15.5t-41.5 -45.5 q1 -9 6.5 -17t10 -11.5t15 -11.5t13.5 -10q52 -36 52 -98q0 -63 -43 -102t-103 -39q-63 0 -102 41t-39 112q0 115 109.5 172.5t304.5 57.5q78 0 138 -8t118 -31.5t95 -62.5t60 -104.5t23 -154.5v-612q0 -70 59 -70q43 0 75.5 41.5t43.5 102.5l27 -8q-31 -100 -76.5 -138.5 t-136.5 -38.5zM528 6q96 0 150.5 67.5t54.5 155.5v357q-93 -1 -154.5 -11.5t-103 -30t-63.5 -56t-30.5 -83t-8.5 -118.5q0 -149 33 -215t122 -66z" />
<glyph unicode="&#xe3;" horiz-adv-x="1249" d="M358 1231q27 106 115 106q34 0 64.5 -16t50 -35t45 -35t49.5 -16q55 0 78 70l28 -11q-28 -106 -114 -106q-33 0 -63.5 16t-50 35t-46 35t-51.5 16q-53 0 -76 -69zM1006 -27q-106 0 -163.5 40.5t-80.5 119.5h-8q-32 -79 -98 -122.5t-203 -43.5q-177 0 -280 75t-103 214 q0 338 663 358v170q0 79 -12 127.5t-39.5 72.5t-61 32t-88.5 8q-87 0 -134.5 -15.5t-41.5 -45.5q1 -9 6.5 -17t10 -11.5t15 -11.5t13.5 -10q52 -36 52 -98q0 -63 -43 -102t-103 -39q-63 0 -102 41t-39 112q0 115 109.5 172.5t304.5 57.5q78 0 138 -8t118 -31.5t95 -62.5 t60 -104.5t23 -154.5v-612q0 -70 59 -70q43 0 75.5 41.5t43.5 102.5l27 -8q-31 -100 -76.5 -138.5t-136.5 -38.5zM528 6q96 0 150.5 67.5t54.5 155.5v357q-93 -1 -154.5 -11.5t-103 -30t-63.5 -56t-30.5 -83t-8.5 -118.5q0 -149 33 -215t122 -66z" />
<glyph unicode="&#xe4;" horiz-adv-x="1249" d="M467 1192q-26 0 -46 19.5t-20 45.5t20 46t46 20q28 0 48 -20t20 -46t-20 -45.5t-48 -19.5zM684 1192q-26 0 -46 19.5t-20 45.5t20 46t46 20q28 0 48 -20t20 -46t-20 -45.5t-48 -19.5zM1006 -27q-106 0 -163.5 40.5t-80.5 119.5h-8q-32 -79 -98 -122.5t-203 -43.5 q-177 0 -280 75t-103 214q0 338 663 358v170q0 79 -12 127.5t-39.5 72.5t-61 32t-88.5 8q-87 0 -134.5 -15.5t-41.5 -45.5q1 -9 6.5 -17t10 -11.5t15 -11.5t13.5 -10q52 -36 52 -98q0 -63 -43 -102t-103 -39q-63 0 -102 41t-39 112q0 115 109.5 172.5t304.5 57.5 q78 0 138 -8t118 -31.5t95 -62.5t60 -104.5t23 -154.5v-612q0 -70 59 -70q43 0 75.5 41.5t43.5 102.5l27 -8q-31 -100 -76.5 -138.5t-136.5 -38.5zM528 6q96 0 150.5 67.5t54.5 155.5v357q-93 -1 -154.5 -11.5t-103 -30t-63.5 -56t-30.5 -83t-8.5 -118.5q0 -149 33 -215 t122 -66z" />
<glyph unicode="&#xe5;" horiz-adv-x="1249" d="M573 1135q-50 0 -86 32t-36 90t36.5 91.5t85.5 33.5t86 -33.5t37 -91.5t-36.5 -90t-86.5 -32zM573 1163q38 0 62 25.5t24 68.5t-24 70t-62 27t-62 -27t-24 -70t24 -68.5t62 -25.5zM1006 -27q-106 0 -163.5 40.5t-80.5 119.5h-8q-32 -79 -98 -122.5t-203 -43.5 q-177 0 -280 75t-103 214q0 338 663 358v170q0 79 -12 127.5t-39.5 72.5t-61 32t-88.5 8q-87 0 -134.5 -15.5t-41.5 -45.5q1 -9 6.5 -17t10 -11.5t15 -11.5t13.5 -10q52 -36 52 -98q0 -63 -43 -102t-103 -39q-63 0 -102 41t-39 112q0 115 109.5 172.5t304.5 57.5 q78 0 138 -8t118 -31.5t95 -62.5t60 -104.5t23 -154.5v-612q0 -70 59 -70q43 0 75.5 41.5t43.5 102.5l27 -8q-31 -100 -76.5 -138.5t-136.5 -38.5zM528 6q96 0 150.5 67.5t54.5 155.5v357q-93 -1 -154.5 -11.5t-103 -30t-63.5 -56t-30.5 -83t-8.5 -118.5q0 -149 33 -215 t122 -66z" />
<glyph unicode="&#xe6;" horiz-adv-x="1769" d="M1305 2q122 0 214.5 67.5t135.5 174.5l31 -13q-125 -264 -418 -264q-267 0 -412 168q-126 -168 -403 -168q-175 0 -279 76t-104 215q0 74 35 131t94.5 93.5t145.5 60.5t181 33.5t207 9.5v4v186q0 46 -3.5 78.5t-14.5 66.5t-30.5 55t-53.5 34.5t-82 13.5 q-105 0 -157 -23.5t-46 -60.5q4 -27 42 -70.5t38 -85.5q0 -49 -35 -83.5t-94 -34.5t-97 37t-38 106q0 110 105 179t313 69q238 0 329 -111q131 111 322 111q223 0 345 -137t122 -375h-107h-166h-393v-19q0 -286 60 -405t213 -119zM1235 1024q-75 0 -116.5 -36.5t-63 -133 t-23.5 -276.5h393q-1 181 -19.5 276.5t-58 132.5t-112.5 37zM532 6q193 0 306 154q-109 141 -109 354v31q-68 0 -111 -2t-87.5 -7.5t-70 -17.5t-49 -31t-35 -48t-18 -68t-6.5 -92q0 -136 43 -204.5t137 -68.5z" />
<glyph unicode="&#xe7;" horiz-adv-x="1112" d="M602 -33l-35 -53q23 0 49.5 -5t56.5 -18t53.5 -31.5t39.5 -48.5t16 -67q0 -67 -48 -112.5t-130 -45.5q-81 0 -128.5 45t-47.5 119h29q0 -61 31.5 -96t84.5 -35q36 0 55 23.5t19 62.5q0 48 -44.5 80.5t-131.5 32.5l96 149q-124 6 -221.5 53.5t-156 124t-88 168.5 t-29.5 195q0 83 18.5 160t60 148.5t103 124.5t153.5 84.5t205 31.5q181 0 297.5 -72.5t116.5 -181.5q0 -67 -42.5 -117.5t-119.5 -50.5q-72 0 -114.5 44t-42.5 107q0 36 15 65.5t33.5 54.5t22.5 42q7 26 -15 44t-55.5 25t-72.5 7q-150 0 -203 -107.5t-53 -386.5 q0 -297 57.5 -412.5t204.5 -115.5q132 0 225 69.5t131 172.5l31 -13q-114 -264 -426 -264z" />
<glyph unicode="&#xe8;" horiz-adv-x="1112" d="M717 1163l-17 -28l-262 237h107zM647 2q122 0 214.5 67.5t135.5 174.5l31 -13q-125 -264 -418 -264q-135 0 -240.5 45t-169 122t-96 173.5t-32.5 206.5q0 107 32 203t92.5 172.5t158 122t218.5 45.5q223 0 345 -137t122 -375h-106h-166h-393v-19q0 -286 59.5 -405 t212.5 -119zM578 1024q-75 0 -116.5 -36.5t-63 -133t-23.5 -276.5h393q-1 181 -19.5 276.5t-58 132.5t-112.5 37z" />
<glyph unicode="&#xe9;" horiz-adv-x="1112" d="M717 1372l-262 -237l-17 28l172 209h107zM647 2q122 0 214.5 67.5t135.5 174.5l31 -13q-125 -264 -418 -264q-135 0 -240.5 45t-169 122t-96 173.5t-32.5 206.5q0 107 32 203t92.5 172.5t158 122t218.5 45.5q223 0 345 -137t122 -375h-106h-166h-393v-19 q0 -286 59.5 -405t212.5 -119zM578 1024q-75 0 -116.5 -36.5t-63 -133t-23.5 -276.5h393q-1 181 -19.5 276.5t-58 132.5t-112.5 37z" />
<glyph unicode="&#xea;" horiz-adv-x="1112" d="M578 1294l-162 -155h-33l172 233h43l174 -233h-33zM647 2q122 0 214.5 67.5t135.5 174.5l31 -13q-125 -264 -418 -264q-135 0 -240.5 45t-169 122t-96 173.5t-32.5 206.5q0 107 32 203t92.5 172.5t158 122t218.5 45.5q223 0 345 -137t122 -375h-106h-166h-393v-19 q0 -286 59.5 -405t212.5 -119zM578 1024q-75 0 -116.5 -36.5t-63 -133t-23.5 -276.5h393q-1 181 -19.5 276.5t-58 132.5t-112.5 37z" />
<glyph unicode="&#xeb;" horiz-adv-x="1112" d="M469 1192q-26 0 -46 19.5t-20 45.5t20 46t46 20q28 0 48 -20t20 -46t-20 -45.5t-48 -19.5zM686 1192q-26 0 -45.5 19.5t-19.5 45.5t19.5 46t45.5 20q28 0 48 -20t20 -46t-20 -45.5t-48 -19.5zM647 2q122 0 214.5 67.5t135.5 174.5l31 -13q-125 -264 -418 -264 q-135 0 -240.5 45t-169 122t-96 173.5t-32.5 206.5q0 107 32 203t92.5 172.5t158 122t218.5 45.5q223 0 345 -137t122 -375h-106h-166h-393v-19q0 -286 59.5 -405t212.5 -119zM578 1024q-75 0 -116.5 -36.5t-63 -133t-23.5 -276.5h393q-1 181 -19.5 276.5t-58 132.5 t-112.5 37z" />
<glyph unicode="&#xec;" horiz-adv-x="688" d="M307 1454h-106l262 -237l16 28zM31 991v33h309q64 0 145 25v-1016h170v-33h-624v33h172v958h-172z" />
<glyph unicode="&#xed;" horiz-adv-x="688" d="M373 1454l-172 -209l16 -28l262 237h-106zM31 991v33h309q64 0 145 25v-1016h170v-33h-624v33h172v958h-172z" />
<glyph unicode="&#xee;" horiz-adv-x="688" d="M145 1221l172 233h43l175 -233h-33l-162 155l-162 -155h-33zM31 991v33h309q64 0 145 25v-1016h170v-33h-624v33h172v958h-172z" />
<glyph unicode="&#xef;" horiz-adv-x="688" d="M231 1274q-26 0 -45.5 19.5t-19.5 45.5t19.5 46t45.5 20q28 0 48 -20t20 -46t-20 -45.5t-48 -19.5zM449 1274q-26 0 -46 19.5t-20 45.5t20 46t46 20q27 0 47 -19.5t20 -46.5q0 -26 -19.5 -45.5t-47.5 -19.5zM31 991v33h309q64 0 145 25v-1016h170v-33h-624v33h172v958 h-172z" />
<glyph unicode="&#xf0;" horiz-adv-x="1185" d="M797 1384q150 -101 233.5 -291.5t83.5 -471.5q0 -193 -59.5 -340t-177 -230.5t-279.5 -83.5q-109 0 -204 35.5t-167 102.5t-113.5 172t-41.5 235q0 129 40 233t109.5 172t163 104t201.5 36q69 0 125 -34t86 -89h10q-18 230 -115 369l-127 -99l-20 25l127 100 q-112 137 -289 137l8 33q216 0 377 -96l119 94l20 -24zM602 0q80 0 128 57t73.5 196t25.5 374q0 106 -24 193.5t-79 145.5t-132 58q-80 0 -125 -43.5t-67.5 -153.5t-22.5 -309q0 -206 25 -320.5t71.5 -156t126.5 -41.5z" />
<glyph unicode="&#xf1;" horiz-adv-x="1355" d="M573 1290q-52 0 -75 -69l-29 10q27 106 115 106q34 0 64.5 -16t50 -35t45 -35t49.5 -16q54 0 77 70l29 -11q-28 -106 -115 -106q-33 0 -63.5 16t-50 35t-46 35t-51.5 16zM1153 33h170v-33h-594v33h141v680q0 147 -39.5 222t-115.5 75q-75 0 -135 -67.5t-95 -170.5v-739 h142v-33h-596v33h172v958h-172v33h309q75 0 145 25v-179h9q47 91 115.5 139t181.5 48q172 0 267 -91t95 -286v-647z" />
<glyph unicode="&#xf2;" horiz-adv-x="1202" d="M569 1372h-106l262 -237l16 28zM602 -33q-110 0 -205 35t-168 101.5t-115 172t-42 236.5t42 236.5t115 172t168 101.5t205 35t205 -35t167.5 -102t114 -172t41.5 -236t-41.5 -236t-114 -172t-167.5 -102t-205 -35zM602 -2q81 0 128 45t71 158t24 311t-24 311t-71 158 t-128 45q-82 0 -129 -45t-70.5 -157.5t-23.5 -311.5t23.5 -311.5t70.5 -157.5t129 -45z" />
<glyph unicode="&#xf3;" horiz-adv-x="1202" d="M635 1372l-172 -209l16 -28l262 237h-106zM602 -33q-110 0 -205 35t-168 101.5t-115 172t-42 236.5t42 236.5t115 172t168 101.5t205 35t205 -35t167.5 -102t114 -172t41.5 -236t-41.5 -236t-114 -172t-167.5 -102t-205 -35zM602 -2q81 0 128 45t71 158t24 311t-24 311 t-71 158t-128 45q-82 0 -129 -45t-70.5 -157.5t-23.5 -311.5t23.5 -311.5t70.5 -157.5t129 -45z" />
<glyph unicode="&#xf4;" horiz-adv-x="1202" d="M408 1139l172 233h43l174 -233h-33l-162 155l-162 -155h-32zM602 -33q-110 0 -205 35t-168 101.5t-115 172t-42 236.5t42 236.5t115 172t168 101.5t205 35t205 -35t167.5 -102t114 -172t41.5 -236t-41.5 -236t-114 -172t-167.5 -102t-205 -35zM602 -2q81 0 128 45t71 158 t24 311t-24 311t-71 158t-128 45q-82 0 -129 -45t-70.5 -157.5t-23.5 -311.5t23.5 -311.5t70.5 -157.5t129 -45z" />
<glyph unicode="&#xf5;" horiz-adv-x="1202" d="M385 1231q27 106 115 106q34 0 64.5 -16t50 -35t45 -35t49.5 -16q54 0 77 70l29 -11q-28 -106 -115 -106q-33 0 -63.5 16t-50 35t-46 35t-51.5 16q-52 0 -75 -69zM602 -33q-110 0 -205 35t-168 101.5t-115 172t-42 236.5t42 236.5t115 172t168 101.5t205 35t205 -35 t167.5 -102t114 -172t41.5 -236t-41.5 -236t-114 -172t-167.5 -102t-205 -35zM602 -2q81 0 128 45t71 158t24 311t-24 311t-71 158t-128 45q-82 0 -129 -45t-70.5 -157.5t-23.5 -311.5t23.5 -311.5t70.5 -157.5t129 -45z" />
<glyph unicode="&#xf6;" horiz-adv-x="1202" d="M494 1192q-26 0 -46 19.5t-20 45.5t20 46t46 20q28 0 47.5 -19.5t19.5 -46.5q0 -26 -19.5 -45.5t-47.5 -19.5zM711 1192q-26 0 -46 19.5t-20 45.5t20 46t46 20q27 0 47 -19.5t20 -46.5q0 -26 -19.5 -45.5t-47.5 -19.5zM602 -33q-110 0 -205 35t-168 101.5t-115 172 t-42 236.5t42 236.5t115 172t168 101.5t205 35t205 -35t167.5 -102t114 -172t41.5 -236t-41.5 -236t-114 -172t-167.5 -102t-205 -35zM602 -2q81 0 128 45t71 158t24 311t-24 311t-71 158t-128 45q-82 0 -129 -45t-70.5 -157.5t-23.5 -311.5t23.5 -311.5t70.5 -157.5 t129 -45z" />
<glyph unicode="&#xf7;" horiz-adv-x="610" d="M307 885q-20 0 -32.5 12.5t-12.5 32.5q0 19 12.5 31t32.5 12q19 0 31 -12t12 -31q0 -20 -12 -32.5t-31 -12.5zM47 737h516v-41h-516v41zM307 461q-20 0 -32.5 12.5t-12.5 32.5q0 19 12.5 31t32.5 12q19 0 31 -12t12 -31q0 -20 -12 -32.5t-31 -12.5z" />
<glyph unicode="&#xf8;" horiz-adv-x="1202" d="M920 965q99 -68 154.5 -183t55.5 -270q0 -131 -41.5 -236t-114 -172t-167.5 -102t-205 -35q-162 0 -289 74l-49 -74h-45l62 94q-98 68 -153.5 182.5t-55.5 268.5q0 131 42 236.5t115 172t168 101.5t205 35q159 0 285 -72l47 72h45zM379 512q0 -161 16 -276l402 612 q-24 97 -71.5 137.5t-123.5 40.5q-82 0 -129 -45t-70.5 -157.5t-23.5 -311.5zM602 -2q81 0 128 45t71 158t24 311q0 175 -18 283l-401 -613q24 -100 71 -142t125 -42z" />
<glyph unicode="&#xf9;" horiz-adv-x="1402" d="M840 1163l-17 -28l-262 237h107zM1200 33h172v-33h-452v156h-11q-29 -45 -55 -74.5t-65 -58t-91.5 -42.5t-119.5 -14q-80 0 -145 17t-118 55t-82.5 106.5t-29.5 163.5v682h-172v33h454v-690q0 -159 46 -240.5t131 -81.5q83 0 156 75.5t102 178.5v725h-148v33h285 q73 0 143 25v-1016z" />
<glyph unicode="&#xfa;" horiz-adv-x="1402" d="M840 1372l-262 -237l-17 28l172 209h107zM1200 33h172v-33h-452v156h-11q-29 -45 -55 -74.5t-65 -58t-91.5 -42.5t-119.5 -14q-80 0 -145 17t-118 55t-82.5 106.5t-29.5 163.5v682h-172v33h454v-690q0 -159 46 -240.5t131 -81.5q83 0 156 75.5t102 178.5v725h-148v33h285 q73 0 143 25v-1016z" />
<glyph unicode="&#xfb;" horiz-adv-x="1402" d="M700 1294l-161 -155h-33l172 233h43l174 -233h-33zM1200 33h172v-33h-452v156h-11q-29 -45 -55 -74.5t-65 -58t-91.5 -42.5t-119.5 -14q-80 0 -145 17t-118 55t-82.5 106.5t-29.5 163.5v682h-172v33h454v-690q0 -159 46 -240.5t131 -81.5q83 0 156 75.5t102 178.5v725 h-148v33h285q73 0 143 25v-1016z" />
<glyph unicode="&#xfc;" horiz-adv-x="1402" d="M592 1192q-26 0 -46 19.5t-20 45.5t20 46t46 20q28 0 47.5 -19.5t19.5 -46.5q0 -26 -19.5 -45.5t-47.5 -19.5zM809 1192q-26 0 -46 19.5t-20 45.5t20 46t46 20q28 0 48 -20t20 -46t-20 -45.5t-48 -19.5zM1200 33h172v-33h-452v156h-11q-29 -45 -55 -74.5t-65 -58 t-91.5 -42.5t-119.5 -14q-80 0 -145 17t-118 55t-82.5 106.5t-29.5 163.5v682h-172v33h454v-690q0 -159 46 -240.5t131 -81.5q83 0 156 75.5t102 178.5v725h-148v33h285q73 0 143 25v-1016z" />
<glyph unicode="&#xfd;" horiz-adv-x="1216" d="M844 1372l-262 -237l-17 28l172 209h107zM883 1024h303v-33h-131q-57 -328 -137.5 -592.5t-181.5 -458t-226 -298.5t-264 -105q-108 0 -190.5 61.5t-82.5 147.5q0 61 36 96t91 35q60 0 93.5 -34.5t33.5 -88.5q0 -29 -12 -49.5t-27 -29.5t-30.5 -21t-20.5 -23 q-8 -25 25.5 -43t91.5 -18q216 0 405 307l-516 1114h-127v33h549v-33h-125l365 -805q128 328 209 805h-131v33z" />
<glyph unicode="&#xfe;" horiz-adv-x="1259" d="M31 1499h284q62 0 150 27v-588h10q70 119 232 119q100 0 185.5 -32t152 -95t105 -165t38.5 -233q0 -253 -131.5 -409t-354.5 -156q-96 0 -146 34.5t-81 92.5h-10v-459h149v-32h-583v32h151v1831h-151v33zM453 520q0 -278 55 -399t166 -121t159 122.5t48 414.5 q0 119 -8 201t-30 150.5t-63.5 102t-105.5 33.5q-119 0 -170 -121t-51 -383z" />
<glyph unicode="&#xff;" horiz-adv-x="1216" d="M596 1192q-26 0 -46 19.5t-20 45.5t20 46t46 20q28 0 48 -20t20 -46t-20 -45.5t-48 -19.5zM813 1192q-26 0 -45.5 19.5t-19.5 45.5t19.5 46t45.5 20q28 0 48 -20t20 -46t-20 -45.5t-48 -19.5zM883 1024h303v-33h-131q-57 -328 -137.5 -592.5t-181.5 -458t-226 -298.5 t-264 -105q-108 0 -190.5 61.5t-82.5 147.5q0 61 36 96t91 35q60 0 93.5 -34.5t33.5 -88.5q0 -29 -12 -49.5t-27 -29.5t-30.5 -21t-20.5 -23q-8 -25 25.5 -43t91.5 -18q216 0 405 307l-516 1114h-127v33h549v-33h-125l365 -805q128 328 209 805h-131v33z" />
<glyph unicode="&#x152;" horiz-adv-x="2076" d="M1976 485h25v-485h-983q-103 -33 -227 -33q-155 0 -288.5 53.5t-228 149.5t-148.5 235.5t-54 305.5q0 169 54.5 310.5t150.5 239t230.5 151.5t291.5 54q113 0 225 -32h922v-351h-25q-4 43 -17 83.5t-43.5 84.5t-75 76t-117 53t-163.5 21h-194v-643h170q44 0 78.5 19.5 t55 48t36 74.5t23 83.5t14.5 91.5h24v-678h-24q-7 55 -14 92t-22.5 84.5t-36 75.5t-55 48t-79.5 20h-170v-684h239q91 0 164.5 28t120.5 73t78.5 105.5t45.5 121t17 124.5zM793 -2q93 0 156 45t63 111v1130q0 65 -62.5 108.5t-156.5 43.5q-201 0 -297.5 -176t-96.5 -543 q0 -370 99 -544.5t295 -174.5z" />
<glyph unicode="&#x153;" horiz-adv-x="1882" d="M1417 2q122 0 214.5 67.5t135.5 174.5l31 -13q-125 -264 -418 -264q-250 0 -393 150q-147 -150 -385 -150q-110 0 -205 35t-168 101.5t-115 172t-42 236.5t42 236.5t115 172t168 101.5t205 35q238 0 383 -148q138 148 358 148q223 0 345 -137t122 -375h-106h-166h-393 v-19q0 -286 59.5 -405t212.5 -119zM602 -2q81 0 128 45t71 158t24 311t-24 311t-71 158t-128 45q-82 0 -129 -45t-70.5 -157.5t-23.5 -311.5t23.5 -311.5t70.5 -157.5t129 -45zM1348 1024q-75 0 -116.5 -36.5t-63 -133t-23.5 -276.5h393q-1 181 -19.5 276.5t-58 132.5 t-112.5 37z" />
<glyph unicode="&#x178;" horiz-adv-x="1413" d="M694 1602q-26 0 -45.5 19.5t-19.5 45.5t19.5 46t45.5 20q28 0 48 -20t20 -46t-20 -45.5t-48 -19.5zM911 1602q-26 0 -45.5 19.5t-19.5 45.5t19.5 46t45.5 20q28 0 48 -20t20 -46t-20 -45.5t-48 -19.5zM1034 1434h344v-33h-118l-361 -690v-678h180v-33h-661v33h182v653 l-416 715h-149v33h614v-33h-151l374 -653l342 653h-180v33z" />
<glyph unicode="&#x2c6;" horiz-adv-x="552" d="M82 1405l172 233h43l174 -233h-33l-162 156l-161 -156h-33z" />
<glyph unicode="&#x2dc;" horiz-adv-x="593" d="M82 1497q28 107 115 107q34 0 64.5 -16t50 -35.5t45 -35.5t49.5 -16q54 0 77 70l29 -10q-28 -107 -115 -107q-33 0 -63.5 16t-50 35t-46 35t-51.5 16q-52 0 -75 -69z" />
<glyph unicode="&#x2000;" horiz-adv-x="896" />
<glyph unicode="&#x2001;" horiz-adv-x="1792" />
<glyph unicode="&#x2002;" horiz-adv-x="896" />
<glyph unicode="&#x2003;" horiz-adv-x="1792" />
<glyph unicode="&#x2004;" horiz-adv-x="597" />
<glyph unicode="&#x2005;" horiz-adv-x="448" />
<glyph unicode="&#x2006;" horiz-adv-x="298" />
<glyph unicode="&#x2007;" horiz-adv-x="298" />
<glyph unicode="&#x2008;" horiz-adv-x="224" />
<glyph unicode="&#x2009;" horiz-adv-x="358" />
<glyph unicode="&#x200a;" horiz-adv-x="99" />
<glyph unicode="&#x2010;" horiz-adv-x="593" d="M82 553h430v-41h-430v41z" />
<glyph unicode="&#x2011;" horiz-adv-x="593" d="M82 553h430v-41h-430v41z" />
<glyph unicode="&#x2012;" horiz-adv-x="593" d="M82 553h430v-41h-430v41z" />
<glyph unicode="&#x2013;" horiz-adv-x="1073" d="M47 553h979v-41h-979v41z" />
<glyph unicode="&#x2014;" horiz-adv-x="1699" d="M47 553h1606v-41h-1606v41z" />
<glyph unicode="&#x2018;" horiz-adv-x="507" d="M82 1219q0 73 29.5 140.5t100 130t175.5 99.5v-24q-55 -21 -104.5 -55t-89 -77.5t-57.5 -98t-7 -109.5h8q20 30 55.5 47.5t75.5 17.5q74 0 116 -44.5t42 -110.5q0 -69 -45.5 -112.5t-110.5 -43.5q-83 0 -135.5 68.5t-52.5 171.5z" />
<glyph unicode="&#x2019;" horiz-adv-x="507" d="M426 1298q0 -73 -29.5 -140.5t-100 -130t-175.5 -99.5v24q55 21 104.5 55t89 77.5t57.5 98t7 109.5h-8q-20 -30 -55.5 -47.5t-75.5 -17.5q-74 0 -116 44.5t-42 110.5q0 69 45.5 112.5t110.5 43.5q83 0 135.5 -68.5t52.5 -171.5z" />
<glyph unicode="&#x201a;" horiz-adv-x="507" d="M426 29q0 -114 -75.5 -215t-229.5 -156v25q55 21 104.5 55t89 77.5t57.5 98t7 109.5h-8q-20 -31 -55.5 -48.5t-75.5 -17.5q-74 0 -116 45t-42 111q0 69 45.5 112t110.5 43q84 0 136 -68t52 -171z" />
<glyph unicode="&#x201c;" horiz-adv-x="937" d="M82 1219q0 73 29.5 140.5t100 130t175.5 99.5v-24q-55 -21 -104.5 -55t-89 -77.5t-57.5 -98t-7 -109.5h8q20 30 55.5 47.5t75.5 17.5q74 0 116 -44.5t42 -110.5q0 -69 -45.5 -112.5t-110.5 -43.5q-83 0 -135.5 68.5t-52.5 171.5zM512 1219q0 73 29.5 140.5t100 130 t175.5 99.5v-24q-55 -21 -104.5 -55t-89 -77.5t-57.5 -98t-7 -109.5h8q20 30 55.5 47.5t75.5 17.5q74 0 116 -44.5t42 -110.5q0 -69 -45.5 -112.5t-110.5 -43.5q-83 0 -135.5 68.5t-52.5 171.5z" />
<glyph unicode="&#x201d;" horiz-adv-x="937" d="M426 1298q0 -73 -29.5 -140.5t-100 -130t-175.5 -99.5v24q55 21 104.5 55t89 77.5t57.5 98t7 109.5h-8q-20 -30 -55.5 -47.5t-75.5 -17.5q-74 0 -116 44.5t-42 110.5q0 69 45.5 112.5t110.5 43.5q83 0 135.5 -68.5t52.5 -171.5zM856 1298q0 -73 -29.5 -140.5t-100 -130 t-175.5 -99.5v24q55 21 104.5 55t89 77.5t57.5 98t7 109.5h-8q-20 -30 -55.5 -47.5t-75.5 -17.5q-74 0 -116 44.5t-42 110.5q0 69 45.5 112.5t110.5 43.5q83 0 135.5 -68.5t52.5 -171.5z" />
<glyph unicode="&#x201e;" horiz-adv-x="937" d="M426 29q0 -114 -75.5 -215t-229.5 -156v25q55 21 104.5 55t89 77.5t57.5 98t7 109.5h-8q-20 -31 -55.5 -48.5t-75.5 -17.5q-74 0 -116 45t-42 111q0 69 45.5 112t110.5 43q84 0 136 -68t52 -171zM856 29q0 -114 -75.5 -215t-229.5 -156v25q55 21 104.5 55t89 77.5 t57.5 98t7 109.5h-8q-20 -31 -55.5 -48.5t-75.5 -17.5q-74 0 -116 45t-42 111q0 69 45.5 112t110.5 43q84 0 136 -68t52 -171z" />
<glyph unicode="&#x2022;" horiz-adv-x="620" d="M307 750q111 0 176.5 -73.5t65.5 -168.5q0 -112 -69.5 -173t-164.5 -61q-110 0 -176.5 74t-66.5 168q0 113 69.5 173.5t165.5 60.5z" />
<glyph unicode="&#x2026;" horiz-adv-x="1277" d="M213 258q57 0 97 -39t40 -98t-40 -98t-97 -39t-97 39t-40 98t40 98t97 39zM639 258q57 0 97 -39t40 -98t-40 -98t-97 -39t-97 39t-40 98t40 98t97 39zM1065 258q57 0 97 -39t40 -98t-40 -98t-97 -39t-97 39t-40 98t40 98t97 39z" />
<glyph unicode="&#x202f;" horiz-adv-x="358" />
<glyph unicode="&#x2039;" horiz-adv-x="653" d="M102 524l430 -368l19 16l-268 356l268 357l-19 16l-430 -369v-8z" />
<glyph unicode="&#x203a;" horiz-adv-x="653" d="M551 524v8l-430 369l-19 -16l269 -357l-269 -356l19 -16z" />
<glyph unicode="&#x205f;" horiz-adv-x="448" />
<glyph unicode="&#x20ac;" horiz-adv-x="1318" d="M1212 207l21 -25q-131 -215 -410 -215q-267 0 -446.5 171.5t-208.5 465.5h-121v33h117q-2 25 -2 76q0 30 4 84h-119v32h121q32 291 211 464t446 173q76 0 143 -16.5t111.5 -32.5t65.5 -16q36 0 49 33h23l-146 -373l-18 8q40 157 -17.5 261t-199.5 104q-181 0 -258 -139.5 t-86 -465.5h479l-15 -32h-467v-80v-80h404l-14 -33h-387q9 -313 90 -458.5t262 -145.5q113 0 210 52.5t158 154.5z" />
<glyph unicode="&#x2122;" horiz-adv-x="1658" d="M688 1434v-179h-20q-2 34 -9.5 59t-27 50.5t-58.5 39t-96 13.5h-22v-676h92v-24h-359v24h95v676h-25q-56 0 -95 -13.5t-58 -39t-27 -51t-10 -58.5h-21v179h641zM1612 1409h-92v-668h92v-24h-355v24h93v617l-224 -641h-26l-230 669h-4v-645h92v-24h-219v24h95v668h-93v25 h295l154 -449l156 449h266v-25z" />
<glyph unicode="&#x25fc;" horiz-adv-x="1024" d="M0 1024h1024v-1024h-1024v1024z" />
</font>
</defs>
</svg>
